<svg xmlns="http://www.w3.org/2000/svg" xmlns:osb="http://www.openswatchbook.org/uri/2009/osb" xmlns:svg="http://www.w3.org/2000/svg" id="svg8" width="210mm" height="297mm" version="1.1" viewBox="0 0 210 297"><defs id="defs2"><linearGradient id="linearGradient2618" osb:paint="solid"><stop style="stop-color:#fff;stop-opacity:1" id="stop2616" offset="0"/></linearGradient><meshgradient id="meshgradient2930" x="111.206" y="91.133" gradientTransform="matrix(1.7712341,0,0,1.7712341,-101.39576,-113.56446)" gradientUnits="userSpaceOnUse"><meshrow id="meshrow2932"><meshpatch id="meshpatch2934"><stop style="stop-color:#fff;stop-opacity:1" id="stop2936" path="c 17.9481,0 35.8963,0 53.8444,0"/><stop style="stop-color:gray;stop-opacity:1" id="stop2938" path="c 0,2.47868 0,4.95736 0,7.43604"/><stop style="stop-color:#fff;stop-opacity:1" id="stop2940" path="c -17.9481,0 -35.8963,0 -53.8444,0"/><stop style="stop-color:gray;stop-opacity:1" id="stop2942" path="c 0,-2.47868 0,-4.95736 0,-7.43604"/></meshpatch></meshrow></meshgradient></defs><metadata id="metadata5"/><g id="layer1"><path style="opacity:1;fill:#000;fill-opacity:.81122448;fill-rule:nonzero;stroke:none;stroke-width:.1484268;stroke-linecap:butt;stroke-miterlimit:4;stroke-dasharray:none;stroke-dashoffset:0;stroke-opacity:1;paint-order:fill markers stroke" id="rect815" d="m 7.544587,29.384928 c -1.7782295,0 -3.2090873,1.430859 -3.2090873,3.209051 V 155.38588 c 0,1.77822 1.4308578,3.20892 3.2090873,3.20892 H 205.31872 c 1.77823,0 3.20889,-1.4307 3.20889,-3.20892 V 32.593979 c 0,-1.778192 -1.43066,-3.209051 -3.20889,-3.209051 z m 21.943654,29.313751 h 24.676826 c 1.397071,0 2.521665,1.124494 2.521665,2.521654 v 12.314611 c 0,1.397099 -1.124594,2.522591 -2.521665,2.522591 H 29.488241 c -1.397152,0 -2.522578,-1.125492 -2.522578,-2.522591 V 61.220333 c 0,-1.39716 1.125426,-2.521654 2.522578,-2.521654 z m 18.205448,74.808371 0.160333,0.16017 v 3.65946 c 0.267996,-0.26805 0.567177,-0.45583 0.897855,-0.56286 0.330635,-0.1074 0.666487,-0.16097 1.005879,-0.16097 0.64348,0 1.081169,0.18702 1.31349,0.56249 0.232381,0.37536 0.348816,0.8987 0.348816,1.56869 v 2.64062 c 0,0.0887 0.02134,0.1611 0.06639,0.21418 0.05326,0.0531 0.121135,0.0849 0.201266,0.0931 l 0.603372,0.093 v 0.49617 h -2.694593 v -0.49617 l 0.522612,-0.093 c 0.07142,-0.0157 0.134124,-0.0485 0.187624,-0.0931 0.05287,-0.0434 0.0811,-0.11567 0.0811,-0.21418 v -2.45285 c 0,-0.53615 -0.07576,-0.93353 -0.227933,-1.19277 -0.142934,-0.26806 -0.428783,-0.40285 -0.857666,-0.40279 -0.250074,0 -0.500339,0.0399 -0.750498,0.12169 -0.25027,0.0804 -0.483049,0.20082 -0.697514,0.36138 v 3.56628 c 0,0.0883 0.02259,0.16099 0.06772,0.21424 0.04359,0.044 0.110888,0.0763 0.200315,0.0943 l 0.522743,0.0925 v 0.49623 h -2.69376 v -0.49621 l 0.589569,-0.0924 c 0.08909,-0.003 0.156688,-0.0346 0.201367,-0.0802 0.0439,-0.0527 0.06685,-0.12595 0.06685,-0.21541 v -6.76867 c 0,-0.0897 -0.02167,-0.15735 -0.06685,-0.20125 -0.04438,-0.0525 -0.111942,-0.0837 -0.201367,-0.0935 l -0.710319,-0.10739 v -0.4431 c 0.276997,-0.0889 0.584889,-0.15152 0.924468,-0.18748 0.348552,-0.0439 0.66208,-0.0698 0.939122,-0.0798 z m 15.816695,0.89782 c 0.214643,0 0.388266,0.0658 0.522722,0.20046 0.134411,0.12541 0.200383,0.29068 0.200383,0.49615 0,0.20564 -0.0671,0.37585 -0.200383,0.50984 -0.134596,0.12511 -0.308079,0.18768 -0.522722,0.18768 -0.214668,0 -0.389557,-0.0621 -0.523572,-0.18768 -0.134259,-0.13463 -0.200482,-0.3042 -0.200482,-0.50984 0,-0.20547 0.06632,-0.37091 0.200482,-0.49615 0.133823,-0.13464 0.308904,-0.20046 0.523572,-0.20046 z m -35.507672,0.25453 h 6.474843 c 0.04422,0.38425 0.06648,0.76423 0.06648,1.1396 0.0039,0.37535 -0.0024,0.76773 -0.03996,1.17875 H 33.92746 l -0.321279,-1.36643 c -0.0039,-0.0806 -0.03569,-0.14292 -0.08068,-0.18765 -0.04454,-0.0448 -0.09865,-0.08 -0.161195,-0.10762 -0.09833,-0.0337 -0.232062,-0.0627 -0.401856,-0.0801 -0.169776,-0.0166 -0.366976,-0.026 -0.590364,-0.026 h -0.589473 v 6.09869 c 0,0.0891 0.02202,0.16171 0.06681,0.2151 0.04464,0.0432 0.111895,0.071 0.201366,0.0798 l 1.139574,0.17453 v 0.49622 h -3.901074 v -0.49613 l 1.139552,-0.17454 c 0.08938,-0.003 0.15669,-0.0355 0.201378,-0.08 0.04457,-0.0527 0.06682,-0.12581 0.06682,-0.21523 v -6.09878 h -0.576505 c -0.214445,0 -0.410752,0.003 -0.589476,0.0256 -0.17872,0.0162 -0.312462,0.0434 -0.401816,0.0806 -0.08056,0.0254 -0.143699,0.062 -0.188575,0.10728 -0.04455,0.0439 -0.07077,0.10727 -0.07967,0.18764 l -0.322169,1.36656 h -0.58944 c -0.02684,-0.41107 -0.03557,-0.80351 -0.02657,-1.1789 0.01804,-0.37535 0.04382,-0.7553 0.07968,-1.13956 z m 27.987466,0 h 5.415869 c 0.01762,0.30369 0.02553,0.61181 0.02553,0.92425 0,0.30459 -0.0063,0.62179 -0.03995,0.95215 H 60.8417 l -0.214211,-0.92448 c -0.0174,-0.0695 -0.05287,-0.13068 -0.106992,-0.17503 -0.04391,-0.0436 -0.102756,-0.0843 -0.173973,-0.12043 -0.116015,-0.0349 -0.264304,-0.0624 -0.442997,-0.0807 -0.178748,-0.0164 -0.370294,-0.0258 -0.575809,-0.0258 h -1.219971 v 2.96281 l 2.372478,-0.0793 v 0.75043 l -2.372478,-0.067 v 2.5729 c 0,0.0611 0.02101,0.12175 0.0667,0.17538 0.04359,0.0508 0.10372,0.0834 0.17478,0.093 l 1.233004,0.16127 v 0.49611 H 55.98962 v -0.49614 l 0.778001,-0.14796 c 0.08923,-0.003 0.151856,-0.0395 0.187658,-0.0939 0.04406,-0.0519 0.06701,-0.12049 0.06701,-0.20034 v -5.71084 c 0,-0.0798 -0.02093,-0.14709 -0.06701,-0.20037 -0.04398,-0.062 -0.106921,-0.0981 -0.187658,-0.10775 l -0.778001,-0.14853 z m -18.483855,1.91667 c 0.598733,0 1.085542,0.16537 1.46091,0.49656 0.384275,0.32119 0.57665,0.79471 0.57665,1.4202 0,0.0885 -0.0024,0.20082 -0.01213,0.33505 -0.0039,0.12527 -0.0215,0.24146 -0.03996,0.34841 h -3.484637 v 0.067 0.0798 c 0,0.87572 0.155905,1.48397 0.468651,1.82361 0.312808,0.33924 0.706245,0.50861 1.179886,0.50861 0.312662,0 0.603263,-0.0664 0.871266,-0.20037 0.277105,-0.14295 0.496404,-0.33979 0.657277,-0.59036 l 0.334962,0.20149 c -0.116169,0.39309 -0.366274,0.71037 -0.75053,0.95184 -0.375347,0.24116 -0.844779,0.36163 -1.407691,0.36163 -0.83103,0 -1.447799,-0.2636 -1.849872,-0.79098 -0.402155,-0.53599 -0.603215,-1.21531 -0.603215,-2.03753 0,-0.92926 0.236671,-1.65761 0.710248,-2.18473 0.4736,-0.52718 1.103782,-0.79077 1.890142,-0.79077 z m 5.830645,0 c 0.303728,0 0.612608,0.0348 0.925272,0.1074 0.321723,0.0702 0.580525,0.15766 0.777152,0.25517 0.01784,0.25034 0.01125,0.52238 -0.01198,0.81743 -0.0174,0.29492 -0.04352,0.5671 -0.07969,0.8172 h -0.536665 l -0.215116,-0.81718 c -0.01809,-0.0889 -0.03968,-0.16529 -0.06678,-0.22794 -0.02622,-0.0611 -0.07066,-0.12159 -0.133718,-0.17511 -0.08045,-0.0621 -0.188137,-0.11592 -0.322237,-0.16017 -0.12498,-0.0436 -0.272282,-0.0668 -0.442079,-0.0668 -0.455691,0 -0.808778,0.18299 -1.058995,0.54905 -0.250232,0.36645 -0.375234,0.92061 -0.375234,1.66244 0,0.77744 0.143193,1.35829 0.42931,1.74245 0.285913,0.38444 0.683192,0.57582 1.192618,0.57582 0.303889,0 0.572188,-0.0572 0.804513,-0.17425 0.241325,-0.11616 0.437677,-0.25482 0.589537,-0.41555 l 0.29466,0.2544 c -0.151888,0.33053 -0.402127,0.58956 -0.750563,0.77704 -0.34845,0.18756 -0.764085,0.2821 -1.24659,0.2821 -0.813231,0 -1.429822,-0.26361 -1.849871,-0.79108 -0.411022,-0.53594 -0.616058,-1.21044 -0.616058,-2.02392 0,-0.42888 0.05728,-0.82682 0.173961,-1.19325 0.116146,-0.3664 0.286408,-0.67911 0.50983,-0.9382 0.223384,-0.26806 0.504294,-0.47797 0.843863,-0.6297 0.339611,-0.15185 0.728283,-0.22795 1.16609,-0.22795 z m 36.512595,0 c 0.598889,0 1.085353,0.16537 1.460817,0.49656 0.384279,0.32119 0.577008,0.79471 0.577008,1.4202 0,0.0885 -0.0024,0.20082 -0.0063,0.33505 -0.0039,0.12527 -0.02127,0.24146 -0.03951,0.34841 h -3.484813 v 0.067 0.0798 c 0,0.87572 0.156702,1.48397 0.468754,1.82361 0.312639,0.33924 0.706091,0.50861 1.179784,0.50861 0.312732,0 0.603172,-0.0664 0.871173,-0.20037 0.277175,-0.14295 0.49556,-0.33979 0.656367,-0.59036 l 0.335171,0.20149 c -0.116394,0.39309 -0.366512,0.71037 -0.750559,0.95184 -0.375467,0.24116 -0.843787,0.36163 -1.406903,0.36163 -0.83118,0 -1.447854,-0.2636 -1.849956,-0.79098 -0.40211,-0.53599 -0.603211,-1.21531 -0.603211,-2.03753 0,-0.92926 0.236641,-1.65761 0.710496,-2.18473 0.47336,-0.52718 1.10357,-0.79077 1.890011,-0.79077 z m 6.795582,0 c 0.08881,0 0.200722,0.006 0.334646,0.0396 0.134927,0.0256 0.246506,0.0578 0.33613,0.0936 0.01575,0.27708 0.0054,0.58971 -0.0063,0.93815 -0.01616,0.33972 -0.05696,0.64773 -0.121073,0.92447 h -0.496132 l -0.14816,-0.75055 c -0.02556,-0.10786 -0.06701,-0.18319 -0.121249,-0.2276 -0.04344,-0.0434 -0.116193,-0.067 -0.214268,-0.067 -0.223342,0 -0.455235,0.0481 -0.696533,0.14772 -0.241295,0.0975 -0.465288,0.25041 -0.670743,0.45578 v 3.24393 c 0,0.0889 0.02142,0.16099 0.06748,0.21401 0.05217,0.0535 0.125146,0.0848 0.214047,0.093 l 0.978573,0.10762 v 0.48249 H 82.93814 v -0.49614 l 0.589543,-0.0928 c 0.08902,-0.003 0.157374,-0.0394 0.201231,-0.0937 0.04359,-0.0515 0.06709,-0.12488 0.06709,-0.21411 v -3.60641 c 0,-0.0886 -0.02135,-0.16098 -0.06709,-0.21416 -0.03449,-0.0617 -0.103469,-0.0975 -0.201231,-0.10774 l -0.670062,-0.0937 v -0.48265 c 0.259071,-0.0793 0.53625,-0.14294 0.831045,-0.18732 0.30403,-0.0441 0.585944,-0.071 0.844901,-0.0804 l 0.160461,0.16132 0.107335,0.89797 c 0.20565,-0.27723 0.474031,-0.52753 0.804508,-0.75086 0.339562,-0.22324 0.687843,-0.33484 1.045433,-0.33484 z m -22.639695,0.0253 0.1485,0.16144 v 4.61121 c 0,0.089 0.02142,0.16099 0.0671,0.21427 0.04437,0.0535 0.110877,0.0849 0.200652,0.0938 l 0.590247,0.093 v 0.49614 H 62.25058 v -0.49585 l 0.589309,-0.0925 c 0.08896,-0.003 0.156832,-0.0396 0.201294,-0.0937 0.04399,-0.0519 0.067,-0.12557 0.067,-0.21424 v -3.63275 c 0,-0.0795 -0.02134,-0.1485 -0.067,-0.20124 -0.03457,-0.052 -0.0982,-0.0834 -0.187475,-0.0931 l -0.683767,-0.0938 v -0.4827 c 0.285978,-0.0884 0.594662,-0.15229 0.925348,-0.18729 0.330779,-0.0432 0.633788,-0.0708 0.910826,-0.0803 z m 2.118376,0.13525 h 4.155132 l 0.201264,0.42844 -3.350774,4.55712 h 1.12587 0.535507 c 0.169825,-0.003 0.331337,-0.0251 0.483254,-0.0517 0.08918,-0.003 0.160545,-0.0297 0.214201,-0.067 0.0616,-0.044 0.107099,-0.11272 0.133887,-0.20142 l 0.281714,-0.96445 0.536462,0.067 c 0.0039,0.27699 0.0039,0.57105 0,0.88406 -0.0039,0.31283 -0.03123,0.60801 -0.06764,0.88504 h -4.396332 l -0.201443,-0.4419 3.378363,-4.58494 h -1.072723 c -0.151469,0 -0.307833,0.003 -0.468614,0.0258 -0.151801,0.003 -0.2866,0.0212 -0.402797,0.0399 -0.09788,0.003 -0.174287,0.0388 -0.227607,0.0931 -0.04406,0.0436 -0.07551,0.1126 -0.09323,0.20104 l -0.213955,0.89818 h -0.550099 c -0.02637,-0.30376 -0.04351,-0.60792 -0.05272,-0.91149 0,-0.31295 0.01539,-0.59864 0.05272,-0.85761 z m 5.670001,0 h 4.154639 l 0.201426,0.42844 -3.350877,4.55712 h 1.125415 0.536676 c 0.170669,-0.003 0.330437,-0.0251 0.482529,-0.0517 0.08873,-0.003 0.160975,-0.0297 0.213899,-0.067 0.06214,-0.044 0.108295,-0.11272 0.135012,-0.20142 l 0.281258,-0.96445 0.536266,0.067 c 0.0039,0.27699 0.0039,0.57105 0,0.88406 -0.0039,0.31283 -0.02962,0.60801 -0.06678,0.88504 h -4.396421 l -0.201192,-0.4419 3.377399,-4.58494 H 73.75142 c -0.151822,0 -0.308938,0.003 -0.469601,0.0258 -0.152229,0.003 -0.285696,0.0212 -0.402066,0.0399 -0.09744,0.003 -0.174488,0.0388 -0.227676,0.0931 -0.04329,0.0436 -0.07622,0.1126 -0.09422,0.20104 l -0.214152,0.89812 h -0.549092 c -0.0258,-0.30377 -0.04406,-0.60791 -0.05272,-0.91152 0,-0.31299 0.01801,-0.59869 0.05272,-0.85762 z m -34.434792,0.38887 c -0.34859,0 -0.639044,0.12527 -0.871398,0.37538 -0.232376,0.24119 -0.379577,0.62979 -0.442104,1.16596 h 2.439289 c 0.0039,-0.0438 0.01213,-0.0847 0.01213,-0.12154 0.0039,-0.0344 0.01125,-0.0756 0.01125,-0.12168 0,-0.38416 -0.102012,-0.69675 -0.307513,-0.93815 -0.196621,-0.24121 -0.47855,-0.36134 -0.844978,-0.36134 z m 42.34349,0 c -0.348776,0 -0.639456,0.12527 -0.871728,0.37538 -0.2322,0.24119 -0.37944,0.62979 -0.441997,1.16596 h 2.439194 c 0.0039,-0.0438 0.0054,-0.0847 0.0054,-0.12154 0.0039,-0.0344 0.0063,-0.0756 0.0063,-0.12168 0,-0.38416 -0.104525,-0.69675 -0.308397,-0.93815 -0.196608,-0.24121 -0.477606,-0.36134 -0.844018,-0.36134 z"/><rect style="opacity:1;fill:#fff;fill-opacity:.81122448;fill-rule:nonzero;stroke:none;stroke-width:.35867423;stroke-linecap:butt;stroke-miterlimit:4;stroke-dasharray:none;stroke-dashoffset:0;stroke-opacity:1;paint-order:fill markers stroke" id="rect916" width="38.345" height="29.824" x="155.659" y="112.832" ry="3.611"/><rect style="opacity:1;fill:#fff;fill-opacity:.81122448;fill-rule:nonzero;stroke:none;stroke-width:.11697217;stroke-linecap:butt;stroke-miterlimit:4;stroke-dasharray:none;stroke-dashoffset:0;stroke-opacity:1;paint-order:fill markers stroke" id="rect926" width="5.314" height="5.314" x="16.2" y="101.127" ry="0"/><rect style="opacity:1;fill:#fff;fill-opacity:.81122448;fill-rule:nonzero;stroke:none;stroke-width:.11697217;stroke-linecap:butt;stroke-miterlimit:4;stroke-dasharray:none;stroke-dashoffset:0;stroke-opacity:1;paint-order:fill markers stroke" id="rect926-6" width="5.314" height="5.314" x="23.954" y="101.127" ry="0"/><rect style="opacity:1;fill:#fff;fill-opacity:.81122448;fill-rule:nonzero;stroke:none;stroke-width:.11697217;stroke-linecap:butt;stroke-miterlimit:4;stroke-dasharray:none;stroke-dashoffset:0;stroke-opacity:1;paint-order:fill markers stroke" id="rect926-2" width="5.314" height="5.314" x="31.687" y="101.127" ry="0"/><rect style="opacity:1;fill:#fff;fill-opacity:.81122448;fill-rule:nonzero;stroke:none;stroke-width:.11697217;stroke-linecap:butt;stroke-miterlimit:4;stroke-dasharray:none;stroke-dashoffset:0;stroke-opacity:1;paint-order:fill markers stroke" id="rect926-9" width="5.314" height="5.314" x="39.727" y="101.127" ry="0"/><rect style="opacity:1;fill:#fff;fill-opacity:.81122448;fill-rule:nonzero;stroke:none;stroke-width:.11697217;stroke-linecap:butt;stroke-miterlimit:4;stroke-dasharray:none;stroke-dashoffset:0;stroke-opacity:1;paint-order:fill markers stroke" id="rect926-1" width="5.314" height="5.314" x="47.599" y="101.127" ry="0"/><rect style="opacity:1;fill:#fff;fill-opacity:.81122448;fill-rule:nonzero;stroke:none;stroke-width:.11697217;stroke-linecap:butt;stroke-miterlimit:4;stroke-dasharray:none;stroke-dashoffset:0;stroke-opacity:1;paint-order:fill markers stroke" id="rect926-60" width="5.314" height="5.314" x="62.743" y="101.127" ry="0"/><rect style="opacity:1;fill:#fff;fill-opacity:.81122448;fill-rule:nonzero;stroke:none;stroke-width:.11697217;stroke-linecap:butt;stroke-miterlimit:4;stroke-dasharray:none;stroke-dashoffset:0;stroke-opacity:1;paint-order:fill markers stroke" id="rect926-6-6" width="5.314" height="5.314" x="70.496" y="101.127" ry="0"/><rect style="opacity:1;fill:#fff;fill-opacity:.81122448;fill-rule:nonzero;stroke:none;stroke-width:.11697217;stroke-linecap:butt;stroke-miterlimit:4;stroke-dasharray:none;stroke-dashoffset:0;stroke-opacity:1;paint-order:fill markers stroke" id="rect926-2-2" width="5.314" height="5.314" x="78.229" y="101.127" ry="0"/><rect style="opacity:1;fill:#fff;fill-opacity:.81122448;fill-rule:nonzero;stroke:none;stroke-width:.11697217;stroke-linecap:butt;stroke-miterlimit:4;stroke-dasharray:none;stroke-dashoffset:0;stroke-opacity:1;paint-order:fill markers stroke" id="rect926-9-6" width="5.314" height="5.314" x="86.269" y="101.127" ry="0"/><rect style="opacity:1;fill:#fff;fill-opacity:.81122448;fill-rule:nonzero;stroke:none;stroke-width:.11697217;stroke-linecap:butt;stroke-miterlimit:4;stroke-dasharray:none;stroke-dashoffset:0;stroke-opacity:1;paint-order:fill markers stroke" id="rect926-1-1" width="5.314" height="5.314" x="94.142" y="101.127" ry="0"/><rect style="opacity:1;fill:#fff;fill-opacity:.81122448;fill-rule:nonzero;stroke:none;stroke-width:.11697217;stroke-linecap:butt;stroke-miterlimit:4;stroke-dasharray:none;stroke-dashoffset:0;stroke-opacity:1;paint-order:fill markers stroke" id="rect926-8" width="5.314" height="5.314" x="108.928" y="101.127" ry="0"/><rect style="opacity:1;fill:#fff;fill-opacity:.81122448;fill-rule:nonzero;stroke:none;stroke-width:.11697217;stroke-linecap:butt;stroke-miterlimit:4;stroke-dasharray:none;stroke-dashoffset:0;stroke-opacity:1;paint-order:fill markers stroke" id="rect926-6-7" width="5.314" height="5.314" x="116.681" y="101.127" ry="0"/><rect style="opacity:1;fill:#fff;fill-opacity:.81122448;fill-rule:nonzero;stroke:none;stroke-width:.11697217;stroke-linecap:butt;stroke-miterlimit:4;stroke-dasharray:none;stroke-dashoffset:0;stroke-opacity:1;paint-order:fill markers stroke" id="rect926-2-9" width="5.314" height="5.314" x="124.415" y="101.127" ry="0"/><rect style="opacity:1;fill:#fff;fill-opacity:.81122448;fill-rule:nonzero;stroke:none;stroke-width:.11697217;stroke-linecap:butt;stroke-miterlimit:4;stroke-dasharray:none;stroke-dashoffset:0;stroke-opacity:1;paint-order:fill markers stroke" id="rect926-9-2" width="5.314" height="5.314" x="132.454" y="101.127" ry="0"/><rect style="opacity:1;fill:#fff;fill-opacity:.81122448;fill-rule:nonzero;stroke:none;stroke-width:.11697217;stroke-linecap:butt;stroke-miterlimit:4;stroke-dasharray:none;stroke-dashoffset:0;stroke-opacity:1;paint-order:fill markers stroke" id="rect926-1-0" width="5.314" height="5.314" x="140.327" y="101.127" ry="0"/><rect style="opacity:1;fill:#fff;fill-opacity:.81122448;fill-rule:nonzero;stroke:none;stroke-width:.11697217;stroke-linecap:butt;stroke-miterlimit:4;stroke-dasharray:none;stroke-dashoffset:0;stroke-opacity:1;paint-order:fill markers stroke" id="rect926-23" width="5.314" height="5.314" x="155.186" y="101.127" ry="0"/><rect style="opacity:1;fill:#fff;fill-opacity:.81122448;fill-rule:nonzero;stroke:none;stroke-width:.11697217;stroke-linecap:butt;stroke-miterlimit:4;stroke-dasharray:none;stroke-dashoffset:0;stroke-opacity:1;paint-order:fill markers stroke" id="rect926-6-75" width="5.314" height="5.314" x="162.938" y="101.127" ry="0"/><rect style="opacity:1;fill:#fff;fill-opacity:.81122448;fill-rule:nonzero;stroke:none;stroke-width:.11697217;stroke-linecap:butt;stroke-miterlimit:4;stroke-dasharray:none;stroke-dashoffset:0;stroke-opacity:1;paint-order:fill markers stroke" id="rect926-2-92" width="5.314" height="5.314" x="170.673" y="101.127" ry="0"/><rect style="opacity:1;fill:#fff;fill-opacity:.81122448;fill-rule:nonzero;stroke:none;stroke-width:.11697217;stroke-linecap:butt;stroke-miterlimit:4;stroke-dasharray:none;stroke-dashoffset:0;stroke-opacity:1;paint-order:fill markers stroke" id="rect926-9-28" width="5.314" height="5.314" x="178.712" y="101.127" ry="0"/><rect style="opacity:1;fill:#fff;fill-opacity:.81122448;fill-rule:nonzero;stroke:none;stroke-width:.11697217;stroke-linecap:butt;stroke-miterlimit:4;stroke-dasharray:none;stroke-dashoffset:0;stroke-opacity:1;paint-order:fill markers stroke" id="rect926-1-9" width="5.314" height="5.314" x="186.585" y="101.127" ry="0"/><text style="font-style:normal;font-variant:normal;font-weight:400;font-stretch:normal;font-size:18.7455616px;line-height:1.25;font-family:Shaumy;-inkscape-font-specification:Shaumy;letter-spacing:0;word-spacing:0;fill:#000;fill-opacity:.81122448;stroke:none;stroke-width:.46863833" id="text1090" x="27.767" y="73.571" xml:space="preserve"><tspan id="tspan1088" x="27.767" y="73.571" style="font-style:normal;font-variant:normal;font-weight:400;font-stretch:normal;font-family:Dyuthi;-inkscape-font-specification:Dyuthi;fill:#000;fill-opacity:.81122448;stroke-width:.46863833">BIN</tspan></text><text style="font-style:normal;font-variant:normal;font-weight:400;font-stretch:normal;font-size:6.5035677px;line-height:1.25;font-family:sans-serif;-inkscape-font-specification:sans-serif;letter-spacing:0;word-spacing:0;fill:#fff;fill-opacity:1;stroke:none;stroke-width:.16258913" id="text1104" x="74.314" y="131.983" xml:space="preserve"><tspan id="tspan1102" x="74.314" y="131.983" style="font-style:normal;font-variant:normal;font-weight:400;font-stretch:normal;font-family:sans-serif;-inkscape-font-specification:sans-serif;fill:#fff;stroke-width:.16258913">xx xx</tspan></text><text style="font-style:normal;font-variant:normal;font-weight:400;font-stretch:normal;font-size:4.51299429px;line-height:1.25;font-family:sans-serif;-inkscape-font-specification:sans-serif;letter-spacing:0;word-spacing:0;fill:#fff;fill-opacity:1;stroke:none;stroke-width:.11282487" id="text1108" x="82.211" y="131.674" xml:space="preserve"><tspan id="tspan1106" x="82.211" y="131.674" style="font-style:normal;font-variant:normal;font-weight:400;font-stretch:normal;font-family:sans-serif;-inkscape-font-specification:sans-serif;fill:#fff;stroke-width:.11282487">/</tspan></text><text style="font-style:normal;font-variant:normal;font-weight:700;font-stretch:normal;font-size:17.01839828px;line-height:1.25;font-family:sans-serif;-inkscape-font-specification:'sans-serif Bold';letter-spacing:0;word-spacing:0;opacity:.95999995;fill:url(#meshgradient2930);fill-opacity:1;stroke:none;stroke-width:.42545971" id="text1150" x="94.014" y="60.783" xml:space="preserve"><tspan id="tspan1148" x="94.014" y="60.783" style="font-style:normal;font-variant:normal;font-weight:700;font-stretch:normal;font-family:sans-serif;-inkscape-font-specification:'sans-serif Bold';fill:url(#meshgradient2930);fill-opacity:1;stroke-width:.42545971">Bank Card</tspan></text></g></svg>