<?xml version="1.0" encoding="UTF-8" standalone="no"?>
<!-- Created with Inkscape (http://www.inkscape.org/) -->

<svg
   xmlns:osb="http://www.openswatchbook.org/uri/2009/osb"
   xmlns:dc="http://purl.org/dc/elements/1.1/"
   xmlns:cc="http://creativecommons.org/ns#"
   xmlns:rdf="http://www.w3.org/1999/02/22-rdf-syntax-ns#"
   xmlns:svg="http://www.w3.org/2000/svg"
   xmlns="http://www.w3.org/2000/svg"
   xmlns:xlink="http://www.w3.org/1999/xlink"
   xmlns:sodipodi="http://sodipodi.sourceforge.net/DTD/sodipodi-0.dtd"
   xmlns:inkscape="http://www.inkscape.org/namespaces/inkscape"
   width="210mm"
   height="297mm"
   viewBox="0 0 210 297"
   version="1.1"
   id="svg99"
   inkscape:version="0.92.5 (2060ec1f9f, 2020-04-08)"
   sodipodi:docname="TF.svg"
   inkscape:export-filename="/home/sakib/Pictures/ART/TF.png"
   inkscape:export-xdpi="300"
   inkscape:export-ydpi="300">
  <defs
     id="defs93">
    <linearGradient
       id="linearGradient2654"
       osb:paint="solid">
      <stop
         style="stop-color:#ffffff;stop-opacity:1;"
         offset="0"
         id="stop2652" />
    </linearGradient>
    <linearGradient
       inkscape:collect="always"
       xlink:href="#linearGradient59-1"
       id="linearGradient2589"
       x1="-353.02133"
       y1="-41.569374"
       x2="-328.18784"
       y2="-41.569374"
       gradientUnits="userSpaceOnUse"
       gradientTransform="matrix(0.71371848,0,0,0.71371848,295.27038,86.30888)" />
    <linearGradient
       inkscape:collect="always"
       id="linearGradient59-1">
      <stop
         style="stop-color:#1a1a1a;stop-opacity:1;"
         offset="0"
         id="stop55" />
      <stop
         style="stop-color:#1a1a1a;stop-opacity:0;"
         offset="1"
         id="stop57" />
    </linearGradient>
  </defs>
  <sodipodi:namedview
     id="base"
     pagecolor="#ffffff"
     bordercolor="#666666"
     borderopacity="1.0"
     inkscape:pageopacity="0.0"
     inkscape:pageshadow="2"
     inkscape:zoom="0.5"
     inkscape:cx="376.91567"
     inkscape:cy="548.55421"
     inkscape:document-units="mm"
     inkscape:current-layer="layer1"
     showgrid="false"
     showguides="true"
     inkscape:guide-bbox="true"
     inkscape:window-width="1366"
     inkscape:window-height="706"
     inkscape:window-x="0"
     inkscape:window-y="25"
     inkscape:window-maximized="1">
    <sodipodi:guide
       position="219.07499,297.39168"
       orientation="0,1"
       id="guide4029"
       inkscape:locked="false" />
    <sodipodi:guide
       position="-131.23333,218.54584"
       orientation="1,0"
       id="guide4062"
       inkscape:locked="false" />
    <sodipodi:guide
       position="-104.24583,184.15001"
       orientation="1,0"
       id="guide4064"
       inkscape:locked="false" />
  </sodipodi:namedview>
  <metadata
     id="metadata96">
    <rdf:RDF>
      <cc:Work
         rdf:about="">
        <dc:format>image/svg+xml</dc:format>
        <dc:type
           rdf:resource="http://purl.org/dc/dcmitype/StillImage" />
        <dc:title />
      </cc:Work>
    </rdf:RDF>
  </metadata>
  <g
     inkscape:label="Layer 1"
     inkscape:groupmode="layer"
     id="layer1">
    <path
       style="opacity:1;fill:none;fill-opacity:1;fill-rule:nonzero;stroke:#ffffff;stroke-width:0.17999999;stroke-linecap:butt;stroke-miterlimit:4;stroke-dasharray:none;stroke-dashoffset:0;stroke-opacity:1;paint-order:fill markers stroke"
       id="path2945"
       d="m -504.45296,41.22802 c 4.80332,-0.605401 9.57389,-1.454555 14.34216,-2.296316 3.21651,-0.56292 6.43641,-1.200057 9.70947,-1.321496 1.1635,-0.04317 2.30735,0.02574 3.46845,0.07377 2.73955,0.177911 5.48179,0.303795 8.22658,0.356172 0.86535,0.442211 0.49744,0.112228 1.03098,1.065514 0,0 -6.73122,3.870899 -6.73122,3.870899 v 0 c -0.23423,-0.431591 -0.0561,-0.276265 -0.56147,-0.432782 -2.67205,-0.211904 -5.34815,-0.370549 -8.02574,-0.493397 -4.28723,-0.167061 -8.52784,0.282577 -12.73826,1.116528 -5.02086,0.876438 -10.02479,1.844672 -15.05545,2.663399 0,0 6.3345,-4.602292 6.3345,-4.602291 z"
       inkscape:connector-curvature="0" />
    <path
       style="opacity:1;fill:none;fill-opacity:1;fill-rule:nonzero;stroke:#ffffff;stroke-width:0.17999999;stroke-linecap:butt;stroke-miterlimit:4;stroke-dasharray:none;stroke-dashoffset:0;stroke-opacity:1;paint-order:fill markers stroke"
       id="path2947"
       d="m -507.04551,39.978435 c 3.8087,-0.265834 7.59973,-0.722847 11.38687,-1.199033 0.57846,-0.05101 1.15695,-0.102026 1.73543,-0.15304 0,0 -6.00048,4.431344 -6.00048,4.431344 v 0 c -0.54298,0.03642 -1.08599,0.07284 -1.62896,0.109265 -3.90208,0.417346 -7.82381,0.82396 -11.68072,1.543069 0,0 6.18786,-4.731605 6.18786,-4.731605 z"
       inkscape:connector-curvature="0" />
    <path
       style="opacity:1;fill:none;fill-opacity:1;fill-rule:nonzero;stroke:#ffffff;stroke-width:0.17999999;stroke-linecap:butt;stroke-miterlimit:4;stroke-dasharray:none;stroke-dashoffset:0;stroke-opacity:1;paint-order:fill markers stroke"
       id="path2953"
       d="m -453.96464,-23.076528 c 1.84573,3.127585 3.9253,6.110184 5.7994,9.219796 1.20848,2.005169 2.33328,4.0596325 3.51078,6.083151 3.21252,5.5206562 6.4461,11.0280541 9.63697,16.5613708 0.74555,1.2611802 1.49109,2.5223612 2.23663,3.7835422 0,0 -5.80408,3.33073 -5.80408,3.33073 v 0 c -0.65278,-1.314415 -1.30556,-2.62883 -1.95834,-3.943246 -5.60446,-10.98855133 -11.67768,-21.8506022 -19.52239,-31.421682 0,0 6.10103,-3.613662 6.10103,-3.613662 z"
       inkscape:connector-curvature="0" />
    <path
       style="opacity:1;fill:none;fill-opacity:1;fill-rule:nonzero;stroke:#ffffff;stroke-width:0.17999999;stroke-linecap:butt;stroke-miterlimit:4;stroke-dasharray:none;stroke-dashoffset:0;stroke-opacity:1;paint-order:fill markers stroke"
       id="path2955"
       d="m -473.05507,-36.990467 c 0.2213,0.563195 0.4795,1.113245 0.66387,1.689584 0.7153,2.236084 2.26448,8.074734 2.76719,9.894571 0.59616,2.158207 1.24971,4.300906 1.80737,6.469383 1.48069,5.757561 1.93157,8.345744 3.12383,14.1871058 0.41926,2.3900398 0.87196,4.77445488 1.25778,7.1701194 0.77732,4.8264184 1.4242,9.6729768 2.16016,14.5058718 0.93927,6.167976 1.89008,12.319773 2.67957,18.508954 1.33829,9.887987 2.57254,19.787861 4.0286,29.659576 1.02425,6.899918 1.42928,13.875761 2.12346,20.815052 0.43233,4.447833 0.77621,8.90752 0.97976,13.371933 0,0 -6.55527,3.350447 -6.55527,3.350447 v 0 c 0.0895,-4.501909 -0.27048,-8.992692 -0.65254,-13.476044 -0.5983,-6.977742 -1.12458,-13.962221 -1.85161,-20.928485 -1.13591,-9.972429 -2.56399,-19.909044 -3.58751,-29.894736 -1.67693,-13.46987 -3.3111,-26.956218 -5.75323,-40.3140096 -0.49707,-2.3807775 -0.94253,-4.7729196 -1.49122,-7.1423321 -1.11871,-4.8309263 -2.17172,-8.5993203 -3.74552,-13.2767873 -1.24722,-3.706908 -2.59009,-7.430337 -4.6433,-10.781798 0,0 6.68861,-3.808405 6.68861,-3.808405 z"
       inkscape:connector-curvature="0" />
    <rect
       style="opacity:1;fill:#ffffff;fill-opacity:1;fill-rule:nonzero;stroke:#ffffff;stroke-width:0.17153738;stroke-linecap:butt;stroke-miterlimit:4;stroke-dasharray:none;stroke-dashoffset:0;stroke-opacity:1;paint-order:fill markers stroke"
       id="rect3881"
       width="197.11497"
       height="236.26828"
       x="7.5744166"
       y="29.069792"
       inkscape:export-xdpi="300"
       inkscape:export-ydpi="300" />
    <rect
       style="opacity:1;fill:#00002b;fill-opacity:1;stroke:none;stroke-width:0.22566931;stroke-miterlimit:4;stroke-dasharray:none;stroke-opacity:1;paint-order:stroke markers fill"
       id="rect1450"
       width="188.2749"
       height="224.71021"
       x="12.213209"
       y="34.703613"
       ry="0"
       inkscape:export-xdpi="300"
       inkscape:export-ydpi="300" />
    <path
       style="opacity:1;fill:none;fill-opacity:1;stroke:#f5ffff;stroke-width:0.18000002;stroke-miterlimit:4;stroke-dasharray:none;stroke-opacity:1;paint-order:stroke fill markers"
       d="m 130.10339,72.86433 a 3.9890512,3.9890512 0 0 1 1.80232,3.88437 3.9890512,3.9890512 0 0 1 -4.48183,3.42319 3.9890512,3.9890512 0 0 1 -3.15774,-2.4414 4.6728883,4.6728883 0 0 0 4.03571,4.28216 4.6728883,4.6728883 0 0 0 0.5856,0.0369 c -0.0154,8.67634 -13.98753,9.17923 -14.0961,20.77567 h 28.19576 C 142.8785,91.22878 128.90602,90.72588 128.89062,82.04955 a 4.6728883,4.6728883 0 0 0 4.66131,-4.04682 4.6728883,4.6728883 0 0 0 -3.44854,-5.13835 z m -24.98492,19.21939 a 7.803443,7.803443 0 0 1 3.52501,7.59837 7.803443,7.803443 0 0 1 -8.76718,6.69662 7.803443,7.803443 0 0 1 -6.17679,-4.77583 9.1411745,9.1411745 0 0 0 7.89433,8.37652 9.1411745,9.1411745 0 0 0 3.03729,-0.11411 c -0.69441,14.81078 -27.531787,15.92778 -27.742887,36.18954 h 55.511537 c -0.21113,-20.2643 -27.05534,-21.37901 -27.74329,-36.19508 a 9.1411745,9.1411745 0 0 0 7.20771,-7.72477 9.1411745,9.1411745 0 0 0 -6.74573,-10.05126 z m 10.4217,11.77712 c -1.11528,0 -2.01349,0.89782 -2.01349,2.01311 v 1.11848 c 0,1.11528 0.89821,2.0131 2.01349,2.0131 h 3.40101 v 16.29185 c 1.72905,1.13794 3.46914,2.30356 5.12567,3.56384 v -2.06025 c 0,-1.9812 1.81587,-3.57652 4.07178,-3.57652 h 1.7417 c 2.25591,0 4.07178,1.59532 4.07178,3.57652 v 19.25346 h 4.34871 c 0.22757,0 0.41086,-0.16068 0.41086,-0.36054 v -36.68836 h 3.55672 c 1.11528,0 2.0131,-0.89782 2.0131,-2.0131 v -1.11848 c 0,-1.11529 -0.89782,-2.01311 -2.0131,-2.01311 z m -47.238827,43.00502 v 67.82908 H 94.32274 v -33.98547 c 0,-7.20061 5.79682,-12.99781 12.99742,-12.99781 7.20063,0 12.99782,5.7972 12.99782,12.99781 v 33.98547 h 24.18262 v -67.82908 z"
       id="rect185"
       inkscape:connector-curvature="0"
       inkscape:export-xdpi="300"
       inkscape:export-ydpi="300" />
    <text
       xml:space="preserve"
       style="font-style:normal;font-variant:normal;font-weight:normal;font-stretch:normal;font-size:26.42762756px;line-height:1.25;font-family:Shaumy;-inkscape-font-specification:Shaumy;letter-spacing:0px;word-spacing:0px;fill:none;fill-opacity:1;stroke:#ffffff;stroke-width:0.30969873;stroke-opacity:1"
       x="30.263136"
       y="246.61014"
       id="text1552"
       inkscape:export-xdpi="300"
       inkscape:export-ydpi="300"><tspan
         sodipodi:role="line"
         id="tspan1550"
         x="30.263136"
         y="246.61014"
         style="font-style:normal;font-variant:normal;font-weight:normal;font-stretch:normal;font-size:26.42762756px;font-family:Shaumy;-inkscape-font-specification:Shaumy;fill:none;stroke:#ffffff;stroke-width:0.30969873;stroke-opacity:1">Eid Mubarak</tspan></text>
    <path
       style="opacity:1;fill:#ffffff;fill-opacity:1;fill-rule:nonzero;stroke:url(#linearGradient2589);stroke-width:0.09382246;stroke-miterlimit:4;stroke-dasharray:none;stroke-opacity:1;paint-order:stroke markers fill"
       d="m 47.746693,48.399653 a 8.845283,8.845283 0 0 0 -4.30915,6.46919 8.845283,8.845283 0 0 0 7.59715,9.93274 8.845283,8.845283 0 0 0 9.93775,-7.59064 8.845283,8.845283 0 0 0 0.0175,-0.17778 7.989289,7.989289 0 0 1 -8.30786,4.56327 7.989289,7.989289 0 0 1 -6.8619,-8.97142 7.989289,7.989289 0 0 1 1.92655,-4.22536 z"
       id="path2371"
       inkscape:connector-curvature="0"
       inkscape:export-xdpi="300"
       inkscape:export-ydpi="300" />
    <path
       sodipodi:type="star"
       style="opacity:1;fill:#ffffff;fill-opacity:1;fill-rule:nonzero;stroke:none;stroke-width:0.12425211;stroke-miterlimit:4;stroke-dasharray:none;stroke-opacity:1;paint-order:stroke markers fill"
       id="path2397"
       sodipodi:sides="5"
       sodipodi:cx="80.540786"
       sodipodi:cy="54.056793"
       sodipodi:r1="1.3566092"
       sodipodi:r2="0.59094298"
       sodipodi:arg1="1.1902899"
       sodipodi:arg2="1.8186085"
       inkscape:flatsided="false"
       inkscape:rounded="0"
       inkscape:randomized="0"
       d="m 81.044619,55.316373 -0.648781,-0.686689 -0.89729,0.295514 0.452596,-0.829226 -0.558329,-0.762055 0.928501,0.174199 0.552225,-0.766489 0.121248,0.936887 0.899622,0.288338 -0.853565,0.404828 z"
       inkscape:transform-center-x="-0.10282612"
       inkscape:transform-center-y="-0.027792156"
       inkscape:export-xdpi="300"
       inkscape:export-ydpi="300" />
    <use
       id="use2441"
       inkscape:spray-origin="#path2397"
       xlink:href="#path2397"
       x="0"
       y="0"
       width="100%"
       height="100%"
       transform="matrix(0.64396424,0,0,0.64396424,62.274237,10.982238)"
       inkscape:export-xdpi="300"
       inkscape:export-ydpi="300" />
    <use
       id="use2443"
       inkscape:spray-origin="#path2397"
       xlink:href="#path2397"
       x="0"
       y="0"
       width="100%"
       height="100%"
       transform="matrix(0.61948751,0,0,0.61948751,50.214036,43.330863)"
       inkscape:export-xdpi="300"
       inkscape:export-ydpi="300" />
    <use
       id="use2449"
       inkscape:spray-origin="#path2397"
       xlink:href="#path2397"
       x="0"
       y="0"
       width="100%"
       height="100%"
       transform="matrix(0.57046477,0,0,0.57046477,-12.686097,31.666984)"
       inkscape:export-xdpi="300"
       inkscape:export-ydpi="300" />
    <use
       id="use2451"
       inkscape:spray-origin="#path2397"
       xlink:href="#path2397"
       x="0"
       y="0"
       width="100%"
       height="100%"
       transform="matrix(0.51571138,0,0,0.51571138,159.09383,34.793174)"
       inkscape:export-xdpi="300"
       inkscape:export-ydpi="300" />
    <use
       id="use2453"
       inkscape:spray-origin="#path2397"
       xlink:href="#path2397"
       x="0"
       y="0"
       width="100%"
       height="100%"
       transform="matrix(0.75077497,0,0,0.75077497,121.93868,6.8395194)"
       inkscape:export-xdpi="300"
       inkscape:export-ydpi="300" />
    <use
       id="use2455"
       inkscape:spray-origin="#path2397"
       xlink:href="#path2397"
       x="0"
       y="0"
       width="100%"
       height="100%"
       transform="matrix(0.57275709,0,0,0.57275709,93.810175,23.423142)"
       inkscape:export-xdpi="300"
       inkscape:export-ydpi="300" />
    <use
       id="use2457"
       inkscape:spray-origin="#path2397"
       xlink:href="#path2397"
       x="0"
       y="0"
       width="100%"
       height="100%"
       transform="matrix(0.55030342,0,0,0.55030342,135.95473,36.342843)"
       inkscape:export-xdpi="300"
       inkscape:export-ydpi="300" />
    <use
       id="use2459"
       inkscape:spray-origin="#path2397"
       xlink:href="#path2397"
       x="0"
       y="0"
       width="100%"
       height="100%"
       transform="matrix(0.57275709,0,0,0.57275709,103.70435,36.971996)"
       inkscape:export-xdpi="300"
       inkscape:export-ydpi="300" />
    <use
       id="use2461"
       inkscape:spray-origin="#path2397"
       xlink:href="#path2397"
       x="0"
       y="0"
       width="100%"
       height="100%"
       transform="matrix(0.4964894,0,0,0.4964894,27.235844,46.265629)"
       inkscape:export-xdpi="300"
       inkscape:export-ydpi="300" />
    <use
       id="use2465"
       inkscape:spray-origin="#path2397"
       xlink:href="#path2397"
       x="0"
       y="0"
       width="100%"
       height="100%"
       transform="matrix(0.56234925,0,0,0.56234925,11.234953,10.858085)"
       inkscape:export-xdpi="300"
       inkscape:export-ydpi="300" />
    <use
       id="use2467"
       inkscape:spray-origin="#path2397"
       xlink:href="#path2397"
       x="0"
       y="0"
       width="100%"
       height="100%"
       transform="matrix(0.65407956,0,0,0.65407956,-34.52227,36.604364)"
       inkscape:export-xdpi="300"
       inkscape:export-ydpi="300" />
    <text
       xml:space="preserve"
       style="font-style:normal;font-variant:normal;font-weight:normal;font-stretch:normal;font-size:7.93106031px;line-height:1.25;font-family:Alameda;-inkscape-font-specification:Alameda;letter-spacing:0px;word-spacing:0px;fill:none;fill-opacity:1;stroke:#ffffff;stroke-width:0.19407634;stroke-linecap:butt;stroke-miterlimit:4;stroke-dasharray:none;stroke-dashoffset:0;stroke-opacity:1;paint-order:fill markers stroke"
       x="84.39827"
       y="158.87009"
       id="text2909"
       inkscape:export-xdpi="300"
       inkscape:export-ydpi="300"><tspan
         sodipodi:role="line"
         id="tspan2907"
         x="84.39827"
         y="158.87009"
         style="font-style:normal;font-variant:normal;font-weight:normal;font-stretch:normal;font-family:Alameda;-inkscape-font-specification:Alameda;fill:none;stroke:#ffffff;stroke-width:0.19407634;stroke-linecap:butt;stroke-miterlimit:4;stroke-dasharray:none;stroke-dashoffset:0;stroke-opacity:1;paint-order:fill markers stroke">Tech Fizzer</tspan></text>
    <use
       id="use2467-6"
       inkscape:spray-origin="#path2397"
       xlink:href="#path2397"
       x="0"
       y="0"
       width="100%"
       height="100%"
       transform="matrix(0.65407955,0,0,0.65407955,-34.315102,9.5636951)"
       inkscape:export-xdpi="300"
       inkscape:export-ydpi="300" />
    <rect
       style="opacity:1;fill:#ffe680;fill-opacity:1;fill-rule:nonzero;stroke:#ffffff;stroke-width:0.18393537;stroke-linecap:butt;stroke-miterlimit:4;stroke-dasharray:none;stroke-dashoffset:0;stroke-opacity:1;paint-order:fill markers stroke"
       id="rect3996"
       width="151.95349"
       height="247.12083"
       x="242.80484"
       y="-0.39167923" />
    <text
       xml:space="preserve"
       style="font-style:normal;font-variant:normal;font-weight:normal;font-stretch:normal;font-size:18.67497826px;line-height:1.25;font-family:Ubuntu;-inkscape-font-specification:Ubuntu;letter-spacing:0px;word-spacing:0px;fill:#000000;fill-opacity:1;stroke:none;stroke-width:0.46687445"
       x="280.82074"
       y="25.995773"
       id="text4000"><tspan
         sodipodi:role="line"
         id="tspan3998"
         x="280.82074"
         y="25.995773"
         style="font-style:normal;font-variant:normal;font-weight:normal;font-stretch:normal;font-family:Ubuntu;-inkscape-font-specification:Ubuntu;stroke-width:0.46687445">Elements</tspan></text>
    <rect
       style="opacity:1;fill:#000080;fill-opacity:1;stroke:#000090;stroke-width:0.26100001;stroke-miterlimit:4;stroke-dasharray:none;stroke-opacity:1;paint-order:stroke markers fill"
       id="rect185-5"
       width="40.411152"
       height="92.04763"
       x="259.4158"
       y="132.70689"
       ry="0.83961916" />
    <rect
       style="opacity:1;fill:#ffffff;fill-opacity:1;stroke:none;stroke-width:0.26100001;stroke-miterlimit:4;stroke-dasharray:none;stroke-opacity:1;paint-order:stroke markers fill"
       id="rect187-6"
       width="20.205576"
       height="69.596985"
       x="346.62189"
       y="149.92548"
       ry="8.3231564" />
    <rect
       style="opacity:1;fill:#000080;fill-opacity:1;stroke:none;stroke-width:0.18423069;stroke-miterlimit:4;stroke-dasharray:none;stroke-opacity:1;paint-order:stroke markers fill"
       id="rect996-0"
       width="62.861797"
       height="10.515652"
       x="259.4158"
       y="110.54977"
       ry="4.1148291" />
    <path
       id="path179-1-9"
       style="fill:#000080;stroke:#000000;stroke-width:0.10872231px;stroke-linecap:butt;stroke-linejoin:miter;stroke-opacity:1"
       d="m 334.47497,103.81264 h 44.80706 m 0,0 C 379.10863,85.291012 356.67626,84.579482 356.8785,70.588845 v 0 c 0.20223,13.990637 -22.23012,14.702167 -22.40353,33.223795"
       inkscape:connector-curvature="0"
       sodipodi:nodetypes="cccccc" />
    <path
       inkscape:connector-curvature="0"
       style="opacity:1;fill:#000080;fill-opacity:1;stroke:none;stroke-width:0.16176777;stroke-miterlimit:4;stroke-dasharray:none;stroke-opacity:1;paint-order:stroke markers fill"
       d="m 288.55341,63.485577 a 16.234056,16.234056 0 0 1 7.33401,15.807945 16.234056,16.234056 0 0 1 -18.23894,13.93135 16.234056,16.234056 0 0 1 -12.85069,-9.93573 19.017037,19.017037 0 0 0 16.42353,17.426678 19.017037,19.017037 0 0 0 21.36594,-16.319438 19.017037,19.017037 0 0 0 -14.03385,-20.910805 z"
       id="path1394-2" />
    <rect
       style="opacity:1;fill:#ffd42a;fill-opacity:1;fill-rule:nonzero;stroke:#ffffff;stroke-width:0.20016176;stroke-linecap:butt;stroke-miterlimit:4;stroke-dasharray:none;stroke-dashoffset:0;stroke-opacity:1;paint-order:fill markers stroke"
       id="rect4031"
       width="110.76201"
       height="150.79976"
       x="-150.98506"
       y="-0.38530207" />
    <text
       xml:space="preserve"
       style="font-style:normal;font-variant:normal;font-weight:bold;font-stretch:normal;font-size:10.58333302px;line-height:1.25;font-family:Ubuntu;-inkscape-font-specification:'Ubuntu Bold';letter-spacing:0px;word-spacing:0px;fill:#00002b;fill-opacity:1;stroke:none;stroke-width:0.26458332;"
       x="-131.23331"
       y="20.774992"
       id="text4035"><tspan
         sodipodi:role="line"
         id="tspan4033"
         x="-131.23331"
         y="20.774992"
         style="font-style:normal;font-variant:normal;font-weight:bold;font-stretch:normal;font-family:Ubuntu;-inkscape-font-specification:'Ubuntu Bold';stroke-width:0.26458332;fill:#00002b;fill-opacity:1;">Color Codes</tspan></text>
    <path
       style="opacity:1;fill:#ffffff;fill-opacity:1;fill-rule:nonzero;stroke:#ffffff;stroke-width:0.20297119;stroke-linecap:butt;stroke-miterlimit:4;stroke-dasharray:none;stroke-dashoffset:0;stroke-opacity:1;paint-order:fill markers stroke"
       id="path4037"
       sodipodi:type="arc"
       sodipodi:cx="-121.97291"
       sodipodi:cy="42.206245"
       sodipodi:rx="9.2488155"
       sodipodi:ry="9.2488155"
       sodipodi:start="4.8465001"
       sodipodi:end="4.8438472"
       sodipodi:open="true"
       d="m -120.73625,33.040479 a 9.2488155,9.2488155 0 0 1 7.92993,10.396341 9.2488155,9.2488155 0 0 1 -10.39108,7.936824 9.2488155,9.2488155 0 0 1 -7.94372,-10.385813 9.2488155,9.2488155 0 0 1 10.38055,-7.950601" />
    <path
       style="opacity:1;fill:#00002b;fill-opacity:1;fill-rule:nonzero;stroke:#ffffff;stroke-width:0.20297119;stroke-linecap:butt;stroke-miterlimit:4;stroke-dasharray:none;stroke-dashoffset:0;stroke-opacity:1;paint-order:fill markers stroke"
       id="path4037-1"
       sodipodi:type="arc"
       sodipodi:cx="-121.70834"
       sodipodi:cy="67.870827"
       sodipodi:rx="9.2488155"
       sodipodi:ry="9.2488155"
       sodipodi:start="4.8465001"
       sodipodi:end="4.8438472"
       sodipodi:open="true"
       d="m -120.47169,58.70506 a 9.2488155,9.2488155 0 0 1 7.92993,10.396342 9.2488155,9.2488155 0 0 1 -10.39108,7.936824 9.2488155,9.2488155 0 0 1 -7.94371,-10.385814 9.2488155,9.2488155 0 0 1 10.38054,-7.9506" />
    <text
       xml:space="preserve"
       style="font-style:normal;font-variant:normal;font-weight:normal;font-stretch:normal;font-size:8.46666667px;line-height:1.25;font-family:'Lipishree Unicode';-inkscape-font-specification:'Lipishree Unicode';letter-spacing:0px;word-spacing:0px;fill:#000000;fill-opacity:1;stroke:none;stroke-width:0.24717115;"
       x="-104.22147"
       y="47.762501"
       id="text4056"><tspan
         sodipodi:role="line"
         id="tspan4054"
         x="-104.22147"
         y="47.762501"
         style="stroke-width:0.24717115;font-size:8.46666667px;">#ffffffff</tspan></text>
    <text
       xml:space="preserve"
       style="font-style:normal;font-variant:normal;font-weight:normal;font-stretch:normal;font-size:7.05555556px;line-height:1.25;font-family:'Lipishree Unicode';-inkscape-font-specification:'Lipishree Unicode';letter-spacing:0px;word-spacing:0px;fill:#000000;fill-opacity:1;stroke:none;stroke-width:0.21330257;"
       x="-104.17403"
       y="72.662376"
       id="text4060"><tspan
         sodipodi:role="line"
         id="tspan4058"
         x="-104.17403"
         y="72.662376"
         style="stroke-width:0.21330257;font-size:7.05555556px;">#00002bff</tspan></text>
    <text
       xml:space="preserve"
       style="font-style:normal;font-variant:normal;font-weight:bold;font-stretch:normal;font-size:10.58333302px;line-height:1.25;font-family:Ubuntu;-inkscape-font-specification:'Ubuntu Bold';letter-spacing:0px;word-spacing:0px;fill:#00002b;fill-opacity:1;stroke:none;stroke-width:0.26458332"
       x="-130.98456"
       y="101.53642"
       id="text4035-2"><tspan
         sodipodi:role="line"
         id="tspan4033-8"
         x="-130.98456"
         y="101.53642"
         style="font-style:normal;font-variant:normal;font-weight:bold;font-stretch:normal;font-family:Ubuntu;-inkscape-font-specification:'Ubuntu Bold';fill:#00002b;fill-opacity:1;stroke-width:0.26458332">Fonts Name</tspan></text>
    <text
       xml:space="preserve"
       style="font-style:normal;font-variant:normal;font-weight:normal;font-stretch:normal;font-size:8.46666667px;line-height:1.25;font-family:Alameda;-inkscape-font-specification:Alameda;letter-spacing:0px;word-spacing:0px;fill:#000000;fill-opacity:1;stroke:none;stroke-width:0.26458332;"
       x="-131.23334"
       y="119.2"
       id="text4086"><tspan
         sodipodi:role="line"
         id="tspan4084"
         x="-131.23334"
         y="119.2"
         style="stroke-width:0.26458332;font-size:8.46666667px;-inkscape-font-specification:Alameda;font-family:Alameda;font-weight:normal;font-style:normal;font-stretch:normal;font-variant:normal;">Alameda</tspan></text>
    <text
       xml:space="preserve"
       style="font-style:normal;font-variant:normal;font-weight:normal;font-stretch:normal;font-size:10.58333302px;line-height:1.25;font-family:Shaumy;-inkscape-font-specification:Shaumy;letter-spacing:0px;word-spacing:0px;fill:#000000;fill-opacity:1;stroke:none;stroke-width:0.26458332"
       x="-131.23334"
       y="132.42917"
       id="text4090"><tspan
         sodipodi:role="line"
         id="tspan4088"
         x="-131.23334"
         y="132.42917"
         style="stroke-width:0.26458332">Shaumi</tspan></text>
  </g>
</svg>
