<svg xmlns="http://www.w3.org/2000/svg" xmlns:osb="http://www.openswatchbook.org/uri/2009/osb" xmlns:svg="http://www.w3.org/2000/svg" xmlns:xlink="http://www.w3.org/1999/xlink" id="svg99" width="210mm" height="297mm" version="1.1" viewBox="0 0 210 297"><defs id="defs93"><linearGradient id="linearGradient2654" osb:paint="solid"><stop style="stop-color:#fff;stop-opacity:1" id="stop2652" offset="0"/></linearGradient><linearGradient id="linearGradient2589" x1="-353.021" x2="-328.188" y1="-41.569" y2="-41.569" gradientTransform="matrix(0.71371848,0,0,0.71371848,295.27038,86.30888)" gradientUnits="userSpaceOnUse" xlink:href="#linearGradient59-1"/><linearGradient id="linearGradient59-1"><stop style="stop-color:#1a1a1a;stop-opacity:1" id="stop55" offset="0"/><stop style="stop-color:#1a1a1a;stop-opacity:0" id="stop57" offset="1"/></linearGradient></defs><metadata id="metadata96"/><g id="layer1"><path style="opacity:1;fill:none;fill-opacity:1;fill-rule:nonzero;stroke:#fff;stroke-width:.17999999;stroke-linecap:butt;stroke-miterlimit:4;stroke-dasharray:none;stroke-dashoffset:0;stroke-opacity:1;paint-order:fill markers stroke" id="path2945" d="m -504.45296,41.22802 c 4.80332,-0.605401 9.57389,-1.454555 14.34216,-2.296316 3.21651,-0.56292 6.43641,-1.200057 9.70947,-1.321496 1.1635,-0.04317 2.30735,0.02574 3.46845,0.07377 2.73955,0.177911 5.48179,0.303795 8.22658,0.356172 0.86535,0.442211 0.49744,0.112228 1.03098,1.065514 0,0 -6.73122,3.870899 -6.73122,3.870899 v 0 c -0.23423,-0.431591 -0.0561,-0.276265 -0.56147,-0.432782 -2.67205,-0.211904 -5.34815,-0.370549 -8.02574,-0.493397 -4.28723,-0.167061 -8.52784,0.282577 -12.73826,1.116528 -5.02086,0.876438 -10.02479,1.844672 -15.05545,2.663399 0,0 6.3345,-4.602292 6.3345,-4.602291 z"/><path style="opacity:1;fill:none;fill-opacity:1;fill-rule:nonzero;stroke:#fff;stroke-width:.17999999;stroke-linecap:butt;stroke-miterlimit:4;stroke-dasharray:none;stroke-dashoffset:0;stroke-opacity:1;paint-order:fill markers stroke" id="path2947" d="m -507.04551,39.978435 c 3.8087,-0.265834 7.59973,-0.722847 11.38687,-1.199033 0.57846,-0.05101 1.15695,-0.102026 1.73543,-0.15304 0,0 -6.00048,4.431344 -6.00048,4.431344 v 0 c -0.54298,0.03642 -1.08599,0.07284 -1.62896,0.109265 -3.90208,0.417346 -7.82381,0.82396 -11.68072,1.543069 0,0 6.18786,-4.731605 6.18786,-4.731605 z"/><path style="opacity:1;fill:none;fill-opacity:1;fill-rule:nonzero;stroke:#fff;stroke-width:.17999999;stroke-linecap:butt;stroke-miterlimit:4;stroke-dasharray:none;stroke-dashoffset:0;stroke-opacity:1;paint-order:fill markers stroke" id="path2953" d="m -453.96464,-23.076528 c 1.84573,3.127585 3.9253,6.110184 5.7994,9.219796 1.20848,2.005169 2.33328,4.0596325 3.51078,6.083151 3.21252,5.5206562 6.4461,11.0280541 9.63697,16.5613708 0.74555,1.2611802 1.49109,2.5223612 2.23663,3.7835422 0,0 -5.80408,3.33073 -5.80408,3.33073 v 0 c -0.65278,-1.314415 -1.30556,-2.62883 -1.95834,-3.943246 -5.60446,-10.98855133 -11.67768,-21.8506022 -19.52239,-31.421682 0,0 6.10103,-3.613662 6.10103,-3.613662 z"/><path style="opacity:1;fill:none;fill-opacity:1;fill-rule:nonzero;stroke:#fff;stroke-width:.17999999;stroke-linecap:butt;stroke-miterlimit:4;stroke-dasharray:none;stroke-dashoffset:0;stroke-opacity:1;paint-order:fill markers stroke" id="path2955" d="m -473.05507,-36.990467 c 0.2213,0.563195 0.4795,1.113245 0.66387,1.689584 0.7153,2.236084 2.26448,8.074734 2.76719,9.894571 0.59616,2.158207 1.24971,4.300906 1.80737,6.469383 1.48069,5.757561 1.93157,8.345744 3.12383,14.1871058 0.41926,2.3900398 0.87196,4.77445488 1.25778,7.1701194 0.77732,4.8264184 1.4242,9.6729768 2.16016,14.5058718 0.93927,6.167976 1.89008,12.319773 2.67957,18.508954 1.33829,9.887987 2.57254,19.787861 4.0286,29.659576 1.02425,6.899918 1.42928,13.875761 2.12346,20.815052 0.43233,4.447833 0.77621,8.90752 0.97976,13.371933 0,0 -6.55527,3.350447 -6.55527,3.350447 v 0 c 0.0895,-4.501909 -0.27048,-8.992692 -0.65254,-13.476044 -0.5983,-6.977742 -1.12458,-13.962221 -1.85161,-20.928485 -1.13591,-9.972429 -2.56399,-19.909044 -3.58751,-29.894736 -1.67693,-13.46987 -3.3111,-26.956218 -5.75323,-40.3140096 -0.49707,-2.3807775 -0.94253,-4.7729196 -1.49122,-7.1423321 -1.11871,-4.8309263 -2.17172,-8.5993203 -3.74552,-13.2767873 -1.24722,-3.706908 -2.59009,-7.430337 -4.6433,-10.781798 0,0 6.68861,-3.808405 6.68861,-3.808405 z"/><rect style="opacity:1;fill:#fff;fill-opacity:1;fill-rule:nonzero;stroke:#fff;stroke-width:.17153738;stroke-linecap:butt;stroke-miterlimit:4;stroke-dasharray:none;stroke-dashoffset:0;stroke-opacity:1;paint-order:fill markers stroke" id="rect3881" width="197.115" height="236.268" x="7.574" y="29.07"/><rect style="opacity:1;fill:#00002b;fill-opacity:1;stroke:none;stroke-width:.22566931;stroke-miterlimit:4;stroke-dasharray:none;stroke-opacity:1;paint-order:stroke markers fill" id="rect1450" width="188.275" height="224.71" x="12.213" y="34.704" ry="0"/><path style="opacity:1;fill:none;fill-opacity:1;stroke:#f5ffff;stroke-width:.18000002;stroke-miterlimit:4;stroke-dasharray:none;stroke-opacity:1;paint-order:stroke fill markers" id="rect185" d="m 130.10339,72.86433 a 3.9890512,3.9890512 0 0 1 1.80232,3.88437 3.9890512,3.9890512 0 0 1 -4.48183,3.42319 3.9890512,3.9890512 0 0 1 -3.15774,-2.4414 4.6728883,4.6728883 0 0 0 4.03571,4.28216 4.6728883,4.6728883 0 0 0 0.5856,0.0369 c -0.0154,8.67634 -13.98753,9.17923 -14.0961,20.77567 h 28.19576 C 142.8785,91.22878 128.90602,90.72588 128.89062,82.04955 a 4.6728883,4.6728883 0 0 0 4.66131,-4.04682 4.6728883,4.6728883 0 0 0 -3.44854,-5.13835 z m -24.98492,19.21939 a 7.803443,7.803443 0 0 1 3.52501,7.59837 7.803443,7.803443 0 0 1 -8.76718,6.69662 7.803443,7.803443 0 0 1 -6.17679,-4.77583 9.1411745,9.1411745 0 0 0 7.89433,8.37652 9.1411745,9.1411745 0 0 0 3.03729,-0.11411 c -0.69441,14.81078 -27.531787,15.92778 -27.742887,36.18954 h 55.511537 c -0.21113,-20.2643 -27.05534,-21.37901 -27.74329,-36.19508 a 9.1411745,9.1411745 0 0 0 7.20771,-7.72477 9.1411745,9.1411745 0 0 0 -6.74573,-10.05126 z m 10.4217,11.77712 c -1.11528,0 -2.01349,0.89782 -2.01349,2.01311 v 1.11848 c 0,1.11528 0.89821,2.0131 2.01349,2.0131 h 3.40101 v 16.29185 c 1.72905,1.13794 3.46914,2.30356 5.12567,3.56384 v -2.06025 c 0,-1.9812 1.81587,-3.57652 4.07178,-3.57652 h 1.7417 c 2.25591,0 4.07178,1.59532 4.07178,3.57652 v 19.25346 h 4.34871 c 0.22757,0 0.41086,-0.16068 0.41086,-0.36054 v -36.68836 h 3.55672 c 1.11528,0 2.0131,-0.89782 2.0131,-2.0131 v -1.11848 c 0,-1.11529 -0.89782,-2.01311 -2.0131,-2.01311 z m -47.238827,43.00502 v 67.82908 H 94.32274 v -33.98547 c 0,-7.20061 5.79682,-12.99781 12.99742,-12.99781 7.20063,0 12.99782,5.7972 12.99782,12.99781 v 33.98547 h 24.18262 v -67.82908 z"/><text style="font-style:normal;font-variant:normal;font-weight:400;font-stretch:normal;font-size:26.42762756px;line-height:1.25;font-family:Shaumy;-inkscape-font-specification:Shaumy;letter-spacing:0;word-spacing:0;fill:none;fill-opacity:1;stroke:#fff;stroke-width:.30969873;stroke-opacity:1" id="text1552" x="30.263" y="246.61" xml:space="preserve"><tspan id="tspan1550" x="30.263" y="246.61" style="font-style:normal;font-variant:normal;font-weight:400;font-stretch:normal;font-size:26.42762756px;font-family:Shaumy;-inkscape-font-specification:Shaumy;fill:none;stroke:#fff;stroke-width:.30969873;stroke-opacity:1">Eid Mubarak</tspan></text><path style="opacity:1;fill:#fff;fill-opacity:1;fill-rule:nonzero;stroke:url(#linearGradient2589);stroke-width:.09382246;stroke-miterlimit:4;stroke-dasharray:none;stroke-opacity:1;paint-order:stroke markers fill" id="path2371" d="m 47.746693,48.399653 a 8.845283,8.845283 0 0 0 -4.30915,6.46919 8.845283,8.845283 0 0 0 7.59715,9.93274 8.845283,8.845283 0 0 0 9.93775,-7.59064 8.845283,8.845283 0 0 0 0.0175,-0.17778 7.989289,7.989289 0 0 1 -8.30786,4.56327 7.989289,7.989289 0 0 1 -6.8619,-8.97142 7.989289,7.989289 0 0 1 1.92655,-4.22536 z"/><path style="opacity:1;fill:#fff;fill-opacity:1;fill-rule:nonzero;stroke:none;stroke-width:.12425211;stroke-miterlimit:4;stroke-dasharray:none;stroke-opacity:1;paint-order:stroke markers fill" id="path2397" d="m 81.044619,55.316373 -0.648781,-0.686689 -0.89729,0.295514 0.452596,-0.829226 -0.558329,-0.762055 0.928501,0.174199 0.552225,-0.766489 0.121248,0.936887 0.899622,0.288338 -0.853565,0.404828 z"/><use id="use2441" width="100%" height="100%" x="0" y="0" transform="matrix(0.64396424,0,0,0.64396424,62.274237,10.982238)" xlink:href="#path2397"/><use id="use2443" width="100%" height="100%" x="0" y="0" transform="matrix(0.61948751,0,0,0.61948751,50.214036,43.330863)" xlink:href="#path2397"/><use id="use2449" width="100%" height="100%" x="0" y="0" transform="matrix(0.57046477,0,0,0.57046477,-12.686097,31.666984)" xlink:href="#path2397"/><use id="use2451" width="100%" height="100%" x="0" y="0" transform="matrix(0.51571138,0,0,0.51571138,159.09383,34.793174)" xlink:href="#path2397"/><use id="use2453" width="100%" height="100%" x="0" y="0" transform="matrix(0.75077497,0,0,0.75077497,121.93868,6.8395194)" xlink:href="#path2397"/><use id="use2455" width="100%" height="100%" x="0" y="0" transform="matrix(0.57275709,0,0,0.57275709,93.810175,23.423142)" xlink:href="#path2397"/><use id="use2457" width="100%" height="100%" x="0" y="0" transform="matrix(0.55030342,0,0,0.55030342,135.95473,36.342843)" xlink:href="#path2397"/><use id="use2459" width="100%" height="100%" x="0" y="0" transform="matrix(0.57275709,0,0,0.57275709,103.70435,36.971996)" xlink:href="#path2397"/><use id="use2461" width="100%" height="100%" x="0" y="0" transform="matrix(0.4964894,0,0,0.4964894,27.235844,46.265629)" xlink:href="#path2397"/><use id="use2465" width="100%" height="100%" x="0" y="0" transform="matrix(0.56234925,0,0,0.56234925,11.234953,10.858085)" xlink:href="#path2397"/><use id="use2467" width="100%" height="100%" x="0" y="0" transform="matrix(0.65407956,0,0,0.65407956,-34.52227,36.604364)" xlink:href="#path2397"/><text style="font-style:normal;font-variant:normal;font-weight:400;font-stretch:normal;font-size:7.93106031px;line-height:1.25;font-family:Alameda;-inkscape-font-specification:Alameda;letter-spacing:0;word-spacing:0;fill:none;fill-opacity:1;stroke:#fff;stroke-width:.19407634;stroke-linecap:butt;stroke-miterlimit:4;stroke-dasharray:none;stroke-dashoffset:0;stroke-opacity:1;paint-order:fill markers stroke" id="text2909" x="84.398" y="158.87" xml:space="preserve"><tspan id="tspan2907" x="84.398" y="158.87" style="font-style:normal;font-variant:normal;font-weight:400;font-stretch:normal;font-family:Alameda;-inkscape-font-specification:Alameda;fill:none;stroke:#fff;stroke-width:.19407634;stroke-linecap:butt;stroke-miterlimit:4;stroke-dasharray:none;stroke-dashoffset:0;stroke-opacity:1;paint-order:fill markers stroke">Tech Fizzer</tspan></text><use id="use2467-6" width="100%" height="100%" x="0" y="0" transform="matrix(0.65407955,0,0,0.65407955,-34.315102,9.5636951)" xlink:href="#path2397"/><rect style="opacity:1;fill:#ffe680;fill-opacity:1;fill-rule:nonzero;stroke:#fff;stroke-width:.18393537;stroke-linecap:butt;stroke-miterlimit:4;stroke-dasharray:none;stroke-dashoffset:0;stroke-opacity:1;paint-order:fill markers stroke" id="rect3996" width="151.953" height="247.121" x="242.805" y="-.392"/><text style="font-style:normal;font-variant:normal;font-weight:400;font-stretch:normal;font-size:18.67497826px;line-height:1.25;font-family:Ubuntu;-inkscape-font-specification:Ubuntu;letter-spacing:0;word-spacing:0;fill:#000;fill-opacity:1;stroke:none;stroke-width:.46687445" id="text4000" x="280.821" y="25.996" xml:space="preserve"><tspan id="tspan3998" x="280.821" y="25.996" style="font-style:normal;font-variant:normal;font-weight:400;font-stretch:normal;font-family:Ubuntu;-inkscape-font-specification:Ubuntu;stroke-width:.46687445">Elements</tspan></text><rect style="opacity:1;fill:navy;fill-opacity:1;stroke:#000090;stroke-width:.26100001;stroke-miterlimit:4;stroke-dasharray:none;stroke-opacity:1;paint-order:stroke markers fill" id="rect185-5" width="40.411" height="92.048" x="259.416" y="132.707" ry=".84"/><rect style="opacity:1;fill:#fff;fill-opacity:1;stroke:none;stroke-width:.26100001;stroke-miterlimit:4;stroke-dasharray:none;stroke-opacity:1;paint-order:stroke markers fill" id="rect187-6" width="20.206" height="69.597" x="346.622" y="149.925" ry="8.323"/><rect style="opacity:1;fill:navy;fill-opacity:1;stroke:none;stroke-width:.18423069;stroke-miterlimit:4;stroke-dasharray:none;stroke-opacity:1;paint-order:stroke markers fill" id="rect996-0" width="62.862" height="10.516" x="259.416" y="110.55" ry="4.115"/><path id="path179-1-9" d="m 334.47497,103.81264 h 44.80706 m 0,0 C 379.10863,85.291012 356.67626,84.579482 356.8785,70.588845 v 0 c 0.20223,13.990637 -22.23012,14.702167 -22.40353,33.223795" style="fill:navy;stroke:#000;stroke-width:.10872231px;stroke-linecap:butt;stroke-linejoin:miter;stroke-opacity:1"/><path style="opacity:1;fill:navy;fill-opacity:1;stroke:none;stroke-width:.16176777;stroke-miterlimit:4;stroke-dasharray:none;stroke-opacity:1;paint-order:stroke markers fill" id="path1394-2" d="m 288.55341,63.485577 a 16.234056,16.234056 0 0 1 7.33401,15.807945 16.234056,16.234056 0 0 1 -18.23894,13.93135 16.234056,16.234056 0 0 1 -12.85069,-9.93573 19.017037,19.017037 0 0 0 16.42353,17.426678 19.017037,19.017037 0 0 0 21.36594,-16.319438 19.017037,19.017037 0 0 0 -14.03385,-20.910805 z"/><rect style="opacity:1;fill:#ffd42a;fill-opacity:1;fill-rule:nonzero;stroke:#fff;stroke-width:.20016176;stroke-linecap:butt;stroke-miterlimit:4;stroke-dasharray:none;stroke-dashoffset:0;stroke-opacity:1;paint-order:fill markers stroke" id="rect4031" width="110.762" height="150.8" x="-150.985" y="-.385"/><text style="font-style:normal;font-variant:normal;font-weight:700;font-stretch:normal;font-size:10.58333302px;line-height:1.25;font-family:Ubuntu;-inkscape-font-specification:'Ubuntu Bold';letter-spacing:0;word-spacing:0;fill:#00002b;fill-opacity:1;stroke:none;stroke-width:.26458332" id="text4035" x="-131.233" y="20.775" xml:space="preserve"><tspan id="tspan4033" x="-131.233" y="20.775" style="font-style:normal;font-variant:normal;font-weight:700;font-stretch:normal;font-family:Ubuntu;-inkscape-font-specification:'Ubuntu Bold';stroke-width:.26458332;fill:#00002b;fill-opacity:1">Color Codes</tspan></text><path style="opacity:1;fill:#fff;fill-opacity:1;fill-rule:nonzero;stroke:#fff;stroke-width:.20297119;stroke-linecap:butt;stroke-miterlimit:4;stroke-dasharray:none;stroke-dashoffset:0;stroke-opacity:1;paint-order:fill markers stroke" id="path4037" d="m -120.73625,33.040479 a 9.2488155,9.2488155 0 0 1 7.92993,10.396341 9.2488155,9.2488155 0 0 1 -10.39108,7.936824 9.2488155,9.2488155 0 0 1 -7.94372,-10.385813 9.2488155,9.2488155 0 0 1 10.38055,-7.950601"/><path style="opacity:1;fill:#00002b;fill-opacity:1;fill-rule:nonzero;stroke:#fff;stroke-width:.20297119;stroke-linecap:butt;stroke-miterlimit:4;stroke-dasharray:none;stroke-dashoffset:0;stroke-opacity:1;paint-order:fill markers stroke" id="path4037-1" d="m -120.47169,58.70506 a 9.2488155,9.2488155 0 0 1 7.92993,10.396342 9.2488155,9.2488155 0 0 1 -10.39108,7.936824 9.2488155,9.2488155 0 0 1 -7.94371,-10.385814 9.2488155,9.2488155 0 0 1 10.38054,-7.9506"/><text style="font-style:normal;font-variant:normal;font-weight:400;font-stretch:normal;font-size:8.46666667px;line-height:1.25;font-family:'Lipishree Unicode';-inkscape-font-specification:'Lipishree Unicode';letter-spacing:0;word-spacing:0;fill:#000;fill-opacity:1;stroke:none;stroke-width:.24717115" id="text4056" x="-104.221" y="47.763" xml:space="preserve"><tspan id="tspan4054" x="-104.221" y="47.763" style="stroke-width:.24717115;font-size:8.46666667px">#ffffffff</tspan></text><text style="font-style:normal;font-variant:normal;font-weight:400;font-stretch:normal;font-size:7.05555556px;line-height:1.25;font-family:'Lipishree Unicode';-inkscape-font-specification:'Lipishree Unicode';letter-spacing:0;word-spacing:0;fill:#000;fill-opacity:1;stroke:none;stroke-width:.21330257" id="text4060" x="-104.174" y="72.662" xml:space="preserve"><tspan id="tspan4058" x="-104.174" y="72.662" style="stroke-width:.21330257;font-size:7.05555556px">#00002bff</tspan></text><text style="font-style:normal;font-variant:normal;font-weight:700;font-stretch:normal;font-size:10.58333302px;line-height:1.25;font-family:Ubuntu;-inkscape-font-specification:'Ubuntu Bold';letter-spacing:0;word-spacing:0;fill:#00002b;fill-opacity:1;stroke:none;stroke-width:.26458332" id="text4035-2" x="-130.985" y="101.536" xml:space="preserve"><tspan id="tspan4033-8" x="-130.985" y="101.536" style="font-style:normal;font-variant:normal;font-weight:700;font-stretch:normal;font-family:Ubuntu;-inkscape-font-specification:'Ubuntu Bold';fill:#00002b;fill-opacity:1;stroke-width:.26458332">Fonts Name</tspan></text><text style="font-style:normal;font-variant:normal;font-weight:400;font-stretch:normal;font-size:8.46666667px;line-height:1.25;font-family:Alameda;-inkscape-font-specification:Alameda;letter-spacing:0;word-spacing:0;fill:#000;fill-opacity:1;stroke:none;stroke-width:.26458332" id="text4086" x="-131.233" y="119.2" xml:space="preserve"><tspan id="tspan4084" x="-131.233" y="119.2" style="stroke-width:.26458332;font-size:8.46666667px;-inkscape-font-specification:Alameda;font-family:Alameda;font-weight:400;font-style:normal;font-stretch:normal;font-variant:normal">Alameda</tspan></text><text style="font-style:normal;font-variant:normal;font-weight:400;font-stretch:normal;font-size:10.58333302px;line-height:1.25;font-family:Shaumy;-inkscape-font-specification:Shaumy;letter-spacing:0;word-spacing:0;fill:#000;fill-opacity:1;stroke:none;stroke-width:.26458332" id="text4090" x="-131.233" y="132.429" xml:space="preserve"><tspan id="tspan4088" x="-131.233" y="132.429" style="stroke-width:.26458332">Shaumi</tspan></text></g></svg>