<svg xmlns="http://www.w3.org/2000/svg" xmlns:svg="http://www.w3.org/2000/svg" xmlns:xlink="http://www.w3.org/1999/xlink" id="SVGRoot" width="1920" height="1080" version="1.1" viewBox="0 0 1920 1080"><defs id="defs3809"><linearGradient id="linearGradient963"><stop style="stop-color:#00004a;stop-opacity:1" id="stop959" offset="0"/><stop style="stop-color:#050f46;stop-opacity:0" id="stop961" offset="1"/></linearGradient><linearGradient id="linearGradient965" x1="282.857" x2="271.429" y1="1308.571" y2="2400" gradientTransform="translate(338.28571,106.77143)" gradientUnits="userSpaceOnUse" xlink:href="#linearGradient963"/><linearGradient id="linearGradient2631" x1="282.857" x2="271.429" y1="1308.571" y2="2400" gradientTransform="matrix(0.99814475,0,0,0.98846861,655.92385,-1283.8525)" gradientUnits="userSpaceOnUse" xlink:href="#linearGradient963"/></defs><metadata id="metadata3812"/><g id="layer1"><rect style="opacity:1;fill:url(#linearGradient2631);fill-opacity:1;stroke:#000090;stroke-width:.97984242;stroke-miterlimit:4;stroke-dasharray:none;stroke-opacity:1;paint-order:stroke markers fill" id="rect3855" width="1919.29" height="1078.843" x="0" y="1.157"/><rect style="opacity:1;fill:#070000;fill-opacity:1;stroke:#000;stroke-width:1.04269063;stroke-miterlimit:4;stroke-dasharray:none;stroke-opacity:1;paint-order:stroke markers fill" id="rect3857" width="843.014" height="152.136" x="1032.652" y="2262.143"/><path style="opacity:1;fill:#070000;fill-opacity:1;stroke:#000;stroke-width:.81429529;stroke-miterlimit:4;stroke-dasharray:none;stroke-opacity:1;paint-order:stroke markers fill" id="path3859" d="m 1583.2742,2643.2831 a 180.56192,150.37383 0 0 1 -185.0613,-59.2541 180.56192,150.37383 0 0 1 -8.1961,-164.9778 180.56192,150.37383 0 0 1 178.5512,-71.7831" transform="matrix(0.97445904,-0.22456533,-0.06432563,0.99792896,0,0)"/><path style="opacity:1;fill:#070000;fill-opacity:1;stroke:#000;stroke-width:.80684203;stroke-miterlimit:4;stroke-dasharray:none;stroke-opacity:1;paint-order:stroke markers fill" id="path3859-6" d="m -1280.9833,1993.2524 a 177.28549,150.36198 0 0 1 -181.7032,-59.2494 177.28549,150.36198 0 0 1 -8.0474,-164.9649 177.28549,150.36198 0 0 1 175.3113,-71.7774" transform="matrix(-0.97349331,-0.22871548,0.06310077,0.99800716,0,0)"/><rect style="opacity:1;fill:#070000;fill-opacity:1;stroke:#000;stroke-width:.88058788;stroke-miterlimit:4;stroke-dasharray:none;stroke-opacity:1;paint-order:stroke markers fill" id="rect3876" width="18.074" height="79.729" x="1360.187" y="1931.049"/><rect style="opacity:1;fill:#070000;fill-opacity:1;stroke:#000;stroke-width:.70354384;stroke-miterlimit:4;stroke-dasharray:none;stroke-opacity:1;paint-order:stroke markers fill" id="rect4704" width="86.628" height="703.552" x="1656.316" y="1599.037"/><path style="opacity:1;fill:#070000;fill-opacity:1;stroke:#000;stroke-width:.98645669;stroke-miterlimit:4;stroke-dasharray:none;stroke-opacity:1;paint-order:stroke markers fill" id="path4734" d="m 1017.2236,431.48207 -56.98447,-13.61022 -55.22209,11.72264 40.27903,-42.54489 17.45894,-53.68506 16.70545,56.15511 z" transform="matrix(-1.9095189,0.01357901,-0.01904859,-1.361224,3543.8431,2526.8547)"/><path style="opacity:1;fill:#070000;fill-opacity:1;stroke:#000;stroke-width:.98645669;stroke-miterlimit:4;stroke-dasharray:none;stroke-opacity:1;paint-order:stroke markers fill" id="path4734-5" d="m 1017.2236,431.48207 -56.98447,-13.61022 -55.22209,11.72264 40.27903,-42.54489 17.45894,-53.68506 16.70545,56.15511 z" transform="matrix(-1.9095189,0.01357901,-0.01904859,-1.361224,3544.4349,2411.7872)"/><path style="opacity:1;fill:#070000;fill-opacity:1;stroke:#000;stroke-width:.98645669;stroke-miterlimit:4;stroke-dasharray:none;stroke-opacity:1;paint-order:stroke markers fill" id="path4734-5-2" d="m 1017.2236,431.48207 -56.98447,-13.61022 -55.22209,11.72264 40.27903,-42.54489 17.45894,-53.68506 16.70545,56.15511 z" transform="matrix(-1.9095189,0.01357901,-0.01904859,-1.361224,3547.6293,2296.7197)"/><path style="opacity:1;fill:#070000;fill-opacity:1;stroke:#000;stroke-width:1.08383083;stroke-miterlimit:4;stroke-dasharray:none;stroke-opacity:1;paint-order:stroke markers fill" id="path4801" d="m 1784.7579,1617.0142 -113.303,-0.5071 57.0907,-97.8698 z" transform="matrix(1.1844854,0,0,1.1184642,-346.1087,-171.04498)"/><path style="opacity:1;fill:#070000;fill-opacity:1;stroke:#000;stroke-width:.98645669;stroke-miterlimit:4;stroke-dasharray:none;stroke-opacity:1;paint-order:stroke markers fill" id="path4801-1" d="m 1682.9927,117.87106 -103.1237,-0.46155 51.9616,-89.076898 z" transform="matrix(0.14433682,0,0,1.204273,1466.4354,1411.1011)"/><path style="fill:#d7e3f4;fill-opacity:1;stroke:#e3ed00;stroke-width:1.09226286px;stroke-linecap:butt;stroke-linejoin:miter;stroke-opacity:0" id="path989" d="m 1919.2898,569.91067 -72.4376,3.40122 -285.1828,160.50751 -336.517,68.29992 L 894.33757,679.17839 480.82113,761.13742 341.08088,699.66812 0,771.2037 V 1080 h 1919.2898 z"/><path style="opacity:1;fill:#070000;fill-opacity:1;stroke:#000;stroke-width:.67035705;stroke-miterlimit:4;stroke-dasharray:none;stroke-opacity:1;paint-order:stroke markers fill" id="rect3857-8" d="m 1611.4952,313.76437 -4.0011,60.6089 -24.0094,41.1584 h -0.5099 v 0.8749 l -14.1265,24.2166 14.1265,0.063 v 63.3743 l -37.0557,-6.3874 37.0557,30.4672 v 52.393 l -39.0501,-6.7295 39.0501,32.1091 v 50.8153 l -39.4212,-6.7938 39.4212,32.4139 v 171.9043 h -67.6431 a 121.00256,87.1536 40.576532 0 0 -2.9149,-106.0234 121.00256,87.1536 40.576532 0 0 -103.0692,-72.9214 l 0.015,-1.0013 a 86.927472,120.58279 48.879428 0 0 -0.098,0.015 v -30.2413 a 38.837729,38.837729 0 0 0 23.771,-37.1572 38.837729,38.837729 0 0 0 -38.4013,-37.4537 38.837729,38.837729 0 0 0 -11.054,1.5321 31.513629,30.537637 0 0 1 30.577,29.4161 31.513629,30.537637 0 0 1 -28.9226,31.5203 l -5.8069,-0.061 a 31.513629,30.537637 0 0 1 -22.5022,-12.8183 38.837729,38.837729 0 0 0 33.3095,27.8777 l 7.1566,0.074 a 38.837729,38.837729 0 0 0 0.5805,-0.076 v 29.5281 a 86.927472,120.58279 48.879428 0 0 -97.3973,71.7666 86.927472,120.58279 48.879428 0 0 -2.8962,106.0234 h -104.3295 v 100.6562 h 526.6617 v -100.6562 h -82.916 v -170.8118 l 40.3375,-32.816 -40.3375,6.7833 v -49.7973 l 40.7086,-33.1167 -40.7086,6.8456 v -48.2362 l 42.703,-34.7379 -42.703,7.1794 v -64.6163 l 15.5984,0.07 -37.1759,-65.06 z"/><path style="opacity:1;fill:#fff;fill-opacity:1;stroke:#000;stroke-width:.26338255;stroke-miterlimit:4;stroke-dasharray:none;stroke-opacity:1;paint-order:stroke markers fill" id="path4706-02" d="m 1330.7772,366.57954 -8.1807,2.04012 -2.9571,7.89564 -4.4683,-7.14988 -8.423,-0.37254 5.4192,-6.45898 -2.2486,-8.12588 7.8175,3.158 7.0334,-4.64953 -0.5878,8.41074 z"/><path style="opacity:1;fill:#fff;fill-opacity:1;stroke:#000;stroke-width:.18208675;stroke-miterlimit:4;stroke-dasharray:none;stroke-opacity:1;paint-order:stroke markers fill" id="path4708-1" d="m 1469.9666,359.4689 -5.7336,-4.90282 -7.2893,1.94374 2.8911,-6.96805 -4.1012,-6.33189 7.5204,0.59632 4.7547,-5.85707 1.7568,7.33661 7.0397,2.71202 -6.4347,3.93795 z"/><path style="opacity:1;fill:#fff;fill-opacity:1;stroke:#000;stroke-width:.75558829;stroke-miterlimit:4;stroke-dasharray:none;stroke-opacity:1;paint-order:stroke markers fill" id="path4710-0" d="m 1272.0273,240.99149 -7.3124,-7.85072 -10.6128,1.57313 5.2068,-9.38055 -4.7757,-9.60722 10.5305,2.05321 7.6612,-7.51072 1.3014,10.64951 9.5106,4.96535 -9.7262,4.52854 z"/><path style="opacity:1;fill:#fff;fill-opacity:1;stroke:#000;stroke-width:.32328683;stroke-miterlimit:4;stroke-dasharray:none;stroke-opacity:1;paint-order:stroke markers fill" id="path4712-5" d="m 1847.6265,229.84847 -8.454,-0.24051 -4.9908,6.82787 -2.3837,-8.11457 -8.036,-2.63664 6.9808,-4.77457 0.024,-8.4574 6.6981,5.16372 8.051,-2.59032 -2.8412,7.96593 z"/><path style="opacity:1;fill:#fff;fill-opacity:1;stroke:#000;stroke-width:.49275416;stroke-miterlimit:4;stroke-dasharray:none;stroke-opacity:1;paint-order:stroke markers fill" id="path4714-6" d="m 1152.14,196.35432 -8.3668,-4.83878 -8.7293,4.14916 2.0165,-9.45253 -6.6436,-7.01991 9.613,-1.00321 4.6234,-8.4877 3.9246,8.83251 9.501,1.77422 -7.1874,6.462 z"/><path style="opacity:1;fill:#fff;fill-opacity:1;stroke:#000;stroke-width:.32193425;stroke-miterlimit:4;stroke-dasharray:none;stroke-opacity:1;paint-order:stroke markers fill" id="path4714-9-4" d="m 1672.6294,-254.30209 -5.4663,-3.16135 -5.7032,2.7108 1.3175,-6.17569 -4.3405,-4.58636 6.2805,-0.65543 3.0206,-5.54533 2.5641,5.77061 6.2074,1.15916 -4.6958,4.22186 z" transform="scale(1,-1)"/><path style="opacity:1;fill:#fff;fill-opacity:1;stroke:#000;stroke-width:.52177268;stroke-miterlimit:4;stroke-dasharray:none;stroke-opacity:1;paint-order:stroke markers fill" id="path4714-2-6" d="m 1493.2171,199.28549 -8.8595,-5.12373 -9.2434,4.3935 2.1353,-10.00919 -7.0349,-7.43332 10.1792,-1.06228 4.8956,-8.98755 4.1558,9.35266 10.0605,1.87871 -7.6107,6.84255 z"/><path style="opacity:1;fill:#fff;fill-opacity:1;stroke:#000;stroke-width:.38011098;stroke-miterlimit:4;stroke-dasharray:none;stroke-opacity:1;paint-order:stroke markers fill" id="path4714-23-2" d="m 1156.8422,333.75159 -6.4541,-3.73264 -6.7338,3.20067 1.5555,-7.29169 -5.1248,-5.41517 7.4154,-0.77387 3.5665,-6.54742 3.0275,6.81341 7.3291,1.36863 -5.5444,4.98479 z"/><text style="font-style:normal;font-variant:normal;font-weight:400;font-stretch:normal;font-size:46.197258px;line-height:1.25;font-family:Kalpurush;-inkscape-font-specification:Kalpurush;letter-spacing:0;word-spacing:0;fill:#d7e3f4;fill-opacity:1;stroke:none;stroke-width:1.15493143" id="text4943-8" x="192.272" y="430.274" xml:space="preserve"><tspan id="tspan4941-6" x="192.272" y="430.274" style="font-style:normal;font-variant:normal;font-weight:400;font-stretch:normal;font-size:221.74685669px;font-family:'Lipishree Unicode';-inkscape-font-specification:'Lipishree Unicode';fill:#d7e3f4;stroke-width:1.15493143">ঈদ মুবারক</tspan></text><text style="font-style:normal;font-variant:normal;font-weight:400;font-stretch:normal;font-size:61.48005676px;line-height:1.25;font-family:'Lipishree Unicode';-inkscape-font-specification:'Lipishree Unicode';letter-spacing:0;word-spacing:0;fill:#00002b;fill-opacity:1;stroke:none;stroke-width:.82339364" id="text62-2" x="171.499" y="842.406" xml:space="preserve"><tspan id="tspan64-8" x="171.499" y="842.406" style="font-style:normal;font-variant:normal;font-weight:400;font-stretch:normal;font-family:'Lipishree Unicode';-inkscape-font-specification:'Lipishree Unicode';fill:#00002b;stroke-width:.82339364"><tspan style="font-style:normal;font-variant:normal;font-weight:400;font-stretch:normal;font-family:'Lipishree Unicode';-inkscape-font-specification:'Lipishree Unicode';fill:#00002b" id="tspan2988">শাওমি ইউজার্স কমিউনিটি অব বাংলাদেশ</tspan>-এর </tspan><tspan id="tspan68-4" x="171.499" y="919.256" style="font-style:normal;font-variant:normal;font-weight:400;font-stretch:normal;font-family:'Lipishree Unicode';-inkscape-font-specification:'Lipishree Unicode';fill:#00002b;stroke-width:.82339364"><tspan style="font-style:normal;font-variant:normal;font-weight:400;font-stretch:normal;font-family:'Lipishree Unicode';-inkscape-font-specification:'Lipishree Unicode';fill:#00002b" id="tspan72-7">পক্ষ থেকে সবাইকে ঈদের প্রাণ ঢালা শুভেচ্ছা।</tspan></tspan></text><path style="opacity:1;fill:#000;fill-opacity:1;stroke:#e3ed00;stroke-width:1.38837922;stroke-miterlimit:4;stroke-dasharray:none;stroke-opacity:0;paint-order:stroke markers fill" id="path224" d="m 1340.8134,1816.1617 a 78.626591,74.244081 0 0 0 -15.5786,1.835 78.626591,74.244081 0 0 0 -1.8701,0.4649 63.40557,59.871453 0 0 1 57.1999,46.1129 63.40557,59.871453 0 0 1 -47.0497,71.8313 l -1.2248,0.2643 a 63.40557,59.871453 0 0 1 -63.896,-22.3125 78.626591,74.244081 0 0 0 91.022,48.5758 l 1.5218,-0.3285 a 78.626591,74.244081 0 0 0 58.3428,-89.0766 78.626591,74.244081 0 0 0 -78.4673,-57.3666 z"/><rect style="opacity:1;fill:#ffd42a;fill-opacity:1;stroke:#e3ed00;stroke-width:1.30299258;stroke-miterlimit:4;stroke-dasharray:none;stroke-opacity:0;paint-order:stroke markers fill" id="rect1110" width="568.388" height="1056.948" x="-1257.143" y="0" ry="55.638"/><path style="opacity:1;fill:#d7e3f4;fill-opacity:1;stroke:#e3ed00;stroke-width:.98645669;stroke-miterlimit:4;stroke-dasharray:none;stroke-opacity:0;paint-order:stroke markers fill" id="path264" d="m -1132.7924,390.36132 a 54.285713,54.285713 0 0 1 -64.5248,-41.2455 54.285713,54.285713 0 0 1 40.925,-64.72861 54.285713,54.285713 0 0 1 64.9308,40.60337 54.285713,54.285713 0 0 1 -40.2808,65.13141"/><path style="opacity:1;fill:#000090;fill-opacity:1;stroke:#e3ed00;stroke-width:.98645669;stroke-miterlimit:4;stroke-dasharray:none;stroke-opacity:0;paint-order:stroke markers fill" id="path264-5" d="m -1132.7927,510.36156 a 54.285713,54.285713 0 0 1 -64.5248,-41.2455 54.285713,54.285713 0 0 1 40.9249,-64.7286 54.285713,54.285713 0 0 1 64.9308,40.60337 54.285713,54.285713 0 0 1 -40.2808,65.1314"/><path style="opacity:1;fill:#00002b;fill-opacity:1;stroke:#e3ed00;stroke-width:.98645669;stroke-miterlimit:4;stroke-dasharray:none;stroke-opacity:0;paint-order:stroke markers fill" id="path264-3" d="m -1135.6499,626.12212 a 54.285713,54.285713 0 0 1 -64.5248,-41.2455 54.285713,54.285713 0 0 1 40.9249,-64.7286 54.285713,54.285713 0 0 1 64.9308,40.60336 54.285713,54.285713 0 0 1 -40.2808,65.13141"/><path style="opacity:1;fill:#fff;fill-opacity:1;stroke:#e3ed00;stroke-width:.98645669;stroke-miterlimit:4;stroke-dasharray:none;stroke-opacity:0;paint-order:stroke markers fill" id="path264-56" d="m -1135.6498,269.49439 a 54.285713,54.285713 0 0 1 -64.5248,-41.2455 54.285713,54.285713 0 0 1 40.9249,-64.7286 54.285713,54.285713 0 0 1 64.9308,40.60336 54.285713,54.285713 0 0 1 -40.2808,65.13141"/><path style="opacity:1;fill:#070000;fill-opacity:1;stroke:#e3ed00;stroke-width:.98645669;stroke-miterlimit:4;stroke-dasharray:none;stroke-opacity:0;paint-order:stroke markers fill" id="path264-3-2" d="m -1137.0785,746.6574 a 54.285713,54.285713 0 0 1 -64.5248,-41.2455 54.285713,54.285713 0 0 1 40.9249,-64.7286 54.285713,54.285713 0 0 1 64.9308,40.60336 54.285713,54.285713 0 0 1 -40.2808,65.13141"/><text style="font-style:normal;font-variant:normal;font-weight:400;font-stretch:normal;font-size:40px;line-height:1.25;font-family:Ubuntu;-inkscape-font-specification:Ubuntu;letter-spacing:0;word-spacing:0;fill:#000;fill-opacity:1;stroke:none" id="text1143" x="-1025.758" y="216.754" xml:space="preserve"><tspan id="tspan1141" x="-1025.758" y="216.754" style="font-style:normal;font-variant:normal;font-stretch:normal;font-family:Ubuntu;-inkscape-font-specification:'Ubuntu weight=255'">#e3ed0000</tspan></text><text style="font-style:normal;font-variant:normal;font-weight:400;font-stretch:normal;font-size:40px;line-height:1.25;font-family:'Lipishree Unicode';-inkscape-font-specification:'Lipishree Unicode';letter-spacing:0;word-spacing:0;fill:#000;fill-opacity:1;stroke:none" id="text1147" x="-1025.758" y="355.897" xml:space="preserve"><tspan id="tspan1145" x="-1025.758" y="355.897">#d7e3f4ff</tspan></text><text style="font-style:normal;font-variant:normal;font-weight:400;font-stretch:normal;font-size:40px;line-height:1.25;font-family:'Lipishree Unicode';-inkscape-font-specification:'Lipishree Unicode';letter-spacing:0;word-spacing:0;fill:#000;fill-opacity:1;stroke:none" id="text1153" x="-1022.901" y="473.897" xml:space="preserve"><tspan id="tspan1151" x="-1022.901" y="473.897">#000090ff</tspan></text><text style="font-style:normal;font-variant:normal;font-weight:400;font-stretch:normal;font-size:40px;line-height:1.25;font-family:'Lipishree Unicode';-inkscape-font-specification:'Lipishree Unicode';letter-spacing:0;word-spacing:0;fill:#000;fill-opacity:1;stroke:none" id="text1157" x="-1022.901" y="600.122" xml:space="preserve"><tspan id="tspan1155" x="-1022.901" y="600.122">#00002bff</tspan></text><text style="font-style:normal;font-variant:normal;font-weight:400;font-stretch:normal;font-size:40px;line-height:1.25;font-family:'Lipishree Unicode';-inkscape-font-specification:'Lipishree Unicode';letter-spacing:0;word-spacing:0;fill:#000;fill-opacity:1;stroke:none" id="text1161" x="-1022.901" y="708.183" xml:space="preserve"><tspan id="tspan1159" x="-1022.901" y="708.183">#070000ff</tspan></text><text style="font-style:normal;font-variant:normal;font-weight:400;font-stretch:normal;font-size:40px;line-height:1.25;font-family:'Lipishree Unicode';-inkscape-font-specification:'Lipishree Unicode';letter-spacing:0;word-spacing:0;fill:#000;fill-opacity:1;stroke:none" id="text1165" x="-1025.195" y="108.469" xml:space="preserve"><tspan id="tspan1163" x="-1023.515" y="108.469" dx="1.42" style="font-style:normal;font-variant:normal;font-weight:700;font-stretch:normal;font-family:Ubuntu;-inkscape-font-specification:'Ubuntu Bold';text-align:center;letter-spacing:3.3599999px;text-anchor:middle">Fill Color codes</tspan></text><text style="font-style:normal;font-variant:normal;font-weight:400;font-stretch:normal;font-size:40px;line-height:1.25;font-family:'Lipishree Unicode';-inkscape-font-specification:'Lipishree Unicode';letter-spacing:0;word-spacing:0;fill:#000;fill-opacity:1;stroke:none" id="text1165-8" x="-1078.867" y="880.852" xml:space="preserve"><tspan id="tspan1163-7" x="-1077.187" y="880.852" style="font-style:normal;font-variant:normal;font-weight:700;font-stretch:normal;font-family:Ubuntu;-inkscape-font-specification:'Ubuntu Bold';text-align:center;letter-spacing:3.3599999px;text-anchor:middle">Font Name</tspan></text><text style="font-style:normal;font-variant:normal;font-weight:400;font-stretch:normal;font-size:40px;line-height:1.25;font-family:'Lipishree Unicode';-inkscape-font-specification:'Lipishree Unicode';letter-spacing:0;word-spacing:0;fill:#000;fill-opacity:1;stroke:none" id="text1195" x="-1200.044" y="957.04" xml:space="preserve"><tspan id="tspan1193" x="-1200.044" y="957.04">Lipishree Unicode</tspan></text><rect style="opacity:1;fill:#fd5;fill-opacity:1;stroke:#000090;stroke-width:1.72770619;stroke-miterlimit:4;stroke-dasharray:none;stroke-opacity:1;paint-order:stroke markers fill" id="rect1274" width="1036.406" height="1202.355" x="-1257.143" y="1242.857" ry="50.448"/><path style="opacity:1;fill:#070000;fill-opacity:1;stroke:#000;stroke-width:.63712448;stroke-miterlimit:4;stroke-dasharray:none;stroke-opacity:1;paint-order:stroke markers fill" id="path3859-2" d="m -726.03425,2024.2498 a 135.87936,122.32905 0 0 1 -139.26528,-48.2031 135.87936,122.32905 0 0 1 -6.16792,-134.2095 135.87936,122.32905 0 0 1 134.36628,-58.3955" transform="matrix(0.97006782,-0.24283416,-0.05923693,0.99824395,0,0)"/><path style="opacity:1;fill:#070000;fill-opacity:1;stroke:#000;stroke-width:.63895518;stroke-miterlimit:4;stroke-dasharray:none;stroke-opacity:1;paint-order:stroke markers fill" id="path3859-6-7" d="m 896.56668,2417.7746 a 136.6584,122.33166 0 0 1 -140.06373,-48.2042 136.6584,122.33166 0 0 1 -6.20329,-134.2123 136.6584,122.33166 0 0 1 135.13664,-58.3967" transform="matrix(-0.9704133,-0.24144984,0.0595965,0.99822255,0,0)"/><rect style="opacity:1;fill:#070000;fill-opacity:1;stroke:#000;stroke-width:.7825551;stroke-miterlimit:4;stroke-dasharray:none;stroke-opacity:1;paint-order:stroke markers fill" id="rect3876-0" width="13.888" height="81.943" x="-729.922" y="1804.259"/><rect style="opacity:1;fill:#070000;fill-opacity:1;stroke:#000;stroke-width:.55632913;stroke-miterlimit:4;stroke-dasharray:none;stroke-opacity:1;paint-order:stroke markers fill" id="rect4704-6" width="66.565" height="572.52" x="-2347.29" y="-1079.398" transform="rotate(-89.428261)"/><path style="opacity:1;fill:#070000;fill-opacity:1;stroke:#000;stroke-width:.98645669;stroke-miterlimit:4;stroke-dasharray:none;stroke-opacity:1;paint-order:stroke markers fill" id="path4706-0" d="m -960.76907,1635.3735 -30.63947,7.6409 -11.07556,29.5719 -16.7351,-26.7787 -31.547,-1.3953 20.2966,-24.1911 -8.4216,-30.4342 29.2791,11.8278 26.34224,-17.414 -2.20116,31.501 z"/><path style="opacity:1;fill:#070000;fill-opacity:1;stroke:#000;stroke-width:.98645669;stroke-miterlimit:4;stroke-dasharray:none;stroke-opacity:1;paint-order:stroke markers fill" id="path4710-6" d="m -473.62219,1644.9928 -9.54675,-10.2494 -13.85548,2.0538 6.79773,-12.2468 -6.23485,-12.5427 13.74798,2.6806 10.00213,-9.8056 1.69898,13.9034 12.41651,6.4825 -12.69795,5.9122 z"/><path style="opacity:1;fill:#070000;fill-opacity:1;stroke:#000;stroke-width:.98645669;stroke-miterlimit:4;stroke-dasharray:none;stroke-opacity:1;paint-order:stroke markers fill" id="path4734-2" d="m 1017.2236,431.48207 -56.98447,-13.61022 -55.22209,11.72264 40.27903,-42.54489 17.45894,-53.68506 16.70545,56.15511 z" transform="matrix(-1.4672725,0.01104999,-0.01463691,-1.1077048,521.03607,1984.9462)"/><path style="opacity:1;fill:#070000;fill-opacity:1;stroke:#000;stroke-width:.98645669;stroke-miterlimit:4;stroke-dasharray:none;stroke-opacity:1;paint-order:stroke markers fill" id="path4734-5-6" d="m 1017.2236,431.48207 -56.98447,-13.61022 -55.22209,11.72264 40.27903,-42.54489 17.45894,-53.68506 16.70545,56.15511 z" transform="matrix(-1.4672725,0.01104999,-0.01463691,-1.1077048,685.7013,1985.7972)"/><path style="opacity:1;fill:#070000;fill-opacity:1;stroke:#000;stroke-width:.98645669;stroke-miterlimit:4;stroke-dasharray:none;stroke-opacity:1;paint-order:stroke markers fill" id="path4734-5-2-1" d="m 1017.2236,431.48207 -56.98447,-13.61022 -55.22209,11.72264 40.27903,-42.54489 17.45894,-53.68506 16.70545,56.15511 z" transform="matrix(-1.4672725,0.01104999,-0.01463691,-1.1077048,850.36654,1986.6482)"/><path style="opacity:1;fill:#070000;fill-opacity:1;stroke:#000;stroke-width:.98645669;stroke-miterlimit:4;stroke-dasharray:none;stroke-opacity:1;paint-order:stroke markers fill" id="path4801-8" d="m -835.94032,1883.0437 -103.12363,-0.4615 51.96153,-89.0769 z"/><path style="opacity:1;fill:#070000;fill-opacity:1;stroke:#000;stroke-width:.98645669;stroke-miterlimit:4;stroke-dasharray:none;stroke-opacity:1;paint-order:stroke markers fill" id="path4801-1-7" d="m 1682.9927,117.87106 -103.1237,-0.46155 51.9616,-89.076898 z" transform="matrix(0.11090827,0,0,0.97998487,-981.89286,1769.3287)"/><path style="opacity:1;fill:#000;fill-opacity:1;stroke:#e3ed00;stroke-width:.98645669;stroke-miterlimit:4;stroke-dasharray:none;stroke-opacity:0;paint-order:stroke markers fill" id="path224-6" d="m -821.70056,1736.1908 a 54.285713,54.285713 0 0 1 -64.52482,-41.2455 54.285713,54.285713 0 0 1 40.92495,-64.7286 54.285713,54.285713 0 0 1 64.9308,40.6034 54.285713,54.285713 0 0 1 -40.28081,65.1314"/><path style="opacity:1;fill:#000;fill-opacity:1;stroke:#e3ed00;stroke-width:.79549229;stroke-miterlimit:4;stroke-dasharray:none;stroke-opacity:0;paint-order:stroke markers fill" id="path224-3-7" d="m -649.47745,1718.3584 a 43.776749,43.776749 0 0 1 -52.03369,-33.261 43.776749,43.776749 0 0 1 33.00244,-52.198 43.776749,43.776749 0 0 1 52.36109,32.7431 43.776749,43.776749 0 0 1 -32.483,52.5229"/><rect style="opacity:1;fill:#070000;fill-opacity:1;stroke:#000;stroke-width:.55632913;stroke-miterlimit:4;stroke-dasharray:none;stroke-opacity:1;paint-order:stroke markers fill" id="rect4704-6-0" width="66.565" height="572.52" x="446.389" y="-2335.407" transform="rotate(179.87129)"/><text style="font-style:normal;font-variant:normal;font-weight:700;font-stretch:normal;font-size:53.33333206px;line-height:1.25;font-family:Ubuntu;-inkscape-font-specification:'Ubuntu Bold';letter-spacing:0;word-spacing:0;fill:#000;fill-opacity:1;stroke:none" id="text1354" x="-1182.612" y="1388.732" xml:space="preserve"><tspan id="tspan1352" x="-1182.612" y="1388.732">Basic Elements for making Mosque</tspan></text><rect style="opacity:1;fill:#87aade;fill-opacity:1;stroke:#000090;stroke-width:.98645669;stroke-miterlimit:4;stroke-dasharray:none;stroke-opacity:1;paint-order:stroke markers fill" id="rect1358" width="2008.184" height="266.68" x="-370.657" y="2635.179" rx="0" ry="6.002"/><text style="font-style:normal;font-variant:normal;font-weight:700;font-stretch:normal;font-size:53.33333206px;line-height:1.25;font-family:Ubuntu;-inkscape-font-specification:'Ubuntu Bold';letter-spacing:0;word-spacing:0;fill:#000;fill-opacity:1;stroke:none" id="text1362" x="388.978" y="2792.763" xml:space="preserve"><tspan id="tspan1360" x="388.978" y="2792.763">© 2020 | Sakib</tspan></text></g></svg>